<?xml version="1.0" encoding="UTF-8"?>
<!DOCTYPE svg PUBLIC "-//W3C//DTD SVG 1.1//EN" "http://www.w3.org/Graphics/SVG/1.1/DTD/svg11.dtd">
<svg xmlns="http://www.w3.org/2000/svg" version="1.1" width="5000px" height="1093px" style="shape-rendering:geometricPrecision; text-rendering:geometricPrecision; image-rendering:optimizeQuality; fill-rule:evenodd; clip-rule:evenodd" xmlns:xlink="http://www.w3.org/1999/xlink">
<g><path style="opacity:0.995" fill="#0056ff" d="M 385.5,56.5 C 424.604,52.7136 457.104,65.3803 483,94.5C 572,225.167 661,355.833 750,486.5C 770.667,523.167 770.667,559.833 750,596.5C 665,726.5 580,856.5 495,986.5C 460.219,1024.97 418.386,1035.14 369.5,1017C 353.638,1009.15 340.138,998.314 329,984.5C 244.915,855.329 160.582,726.329 76,597.5C 56.2699,563.896 54.2699,529.229 70,493.5C 153.166,359.83 236.833,226.497 321,93.5C 338.492,74.0092 359.992,61.6759 385.5,56.5 Z M 516.5,330.5 C 564.534,400.543 612.201,470.877 659.5,541.5C 577.846,668.136 495.679,794.469 413,920.5C 349.709,824.085 286.542,727.585 223.5,631C 325.373,618.364 405.54,570.198 464,486.5C 494.747,439.094 512.247,387.094 516.5,330.5 Z"/></g>
<g><path style="opacity:0.993" fill="#000000" d="M 3126.5,197.5 C 3189.53,196.471 3248.87,210.637 3304.5,240C 3378.23,284.207 3422.07,349.04 3436,434.5C 3437.41,444.145 3438.58,453.812 3439.5,463.5C 3376.5,463.5 3313.5,463.5 3250.5,463.5C 3244.7,404.2 3212.37,370.033 3153.5,361C 3083.61,353.677 3035.11,382.177 3008,446.5C 2996.13,479.441 2990.63,513.441 2991.5,548.5C 2990.7,583.103 2995.87,616.77 3007,649.5C 3032.19,711.368 3078.35,740.201 3145.5,736C 3204.63,731.699 3239.63,700.532 3250.5,642.5C 3313.5,642.413 3376.5,642.746 3439.5,643.5C 3430.25,720.845 3395.58,784.012 3335.5,833C 3274.73,878.254 3206.23,900.087 3130,898.5C 3058.14,899.417 2992.31,880.25 2932.5,841C 2869.08,793.747 2828.58,731.247 2811,653.5C 2798.96,592.463 2797.29,531.13 2806,469.5C 2820.53,374.424 2867.37,300.257 2946.5,247C 3002.1,214.267 3062.1,197.767 3126.5,197.5 Z"/></g>
<g><path style="opacity:0.995" fill="#000000" d="M 965.5,207.5 C 1050.4,207.168 1135.24,207.502 1220,208.5C 1294.84,435.027 1369.68,661.527 1444.5,888C 1377.5,888.833 1310.5,888.667 1243.5,887.5C 1230.5,844.833 1217.5,802.167 1204.5,759.5C 1129.84,758.5 1055.17,758.167 980.5,758.5C 967.833,801.833 955.167,845.167 942.5,888.5C 875.5,888.5 808.5,888.5 741.5,888.5C 816.167,661.5 890.833,434.5 965.5,207.5 Z M 1090.5,395.5 C 1092.17,395.5 1093.83,395.5 1095.5,395.5C 1117.22,469.994 1139.55,544.327 1162.5,618.5C 1116.17,619.5 1069.84,619.833 1023.5,619.5C 1045.83,544.834 1068.17,470.167 1090.5,395.5 Z"/></g>
<g><path style="opacity:0.994" fill="#000000" d="M 1470.5,207.5 C 1547.84,207.167 1625.17,207.5 1702.5,208.5C 1754.57,335.874 1806.74,463.207 1859,590.5C 1861.52,592.662 1864.36,592.995 1867.5,591.5C 1920.41,463.696 1972.74,335.696 2024.5,207.5C 2101.83,207.5 2179.17,207.5 2256.5,207.5C 2256.5,434.5 2256.5,661.5 2256.5,888.5C 2195.83,888.5 2135.17,888.5 2074.5,888.5C 2074.5,757.5 2074.5,626.5 2074.5,495.5C 2072.83,495.5 2071.17,495.5 2069.5,495.5C 2019.91,624.691 1969.74,753.691 1919,882.5C 1900.57,883.164 1882.07,883.497 1863.5,883.5C 1844.93,883.497 1826.43,883.164 1808,882.5C 1757.54,752.579 1707.37,622.579 1657.5,492.5C 1655.83,492.5 1654.17,492.5 1652.5,492.5C 1652.5,624.5 1652.5,756.5 1652.5,888.5C 1591.83,888.5 1531.17,888.5 1470.5,888.5C 1470.5,661.5 1470.5,434.5 1470.5,207.5 Z"/></g>
<g><path style="opacity:0.995" fill="#000000" d="M 2305.5,207.5 C 2367.5,207.5 2429.5,207.5 2491.5,207.5C 2491.5,384.833 2491.5,562.167 2491.5,739.5C 2583.17,739.5 2674.83,739.5 2766.5,739.5C 2766.5,789.5 2766.5,839.5 2766.5,889.5C 2612.83,888.716 2459.17,888.383 2305.5,888.5C 2305.5,661.5 2305.5,434.5 2305.5,207.5 Z"/></g>
<g><path style="opacity:0.993" fill="#000000" d="M 3483.5,207.5 C 3591.83,207.333 3700.17,207.5 3808.5,208C 3853.58,209.269 3896.24,219.936 3936.5,240C 3999.18,276.53 4025.68,331.03 4016,403.5C 4005.42,456.084 3975.59,493.251 3926.5,515C 3913.86,520.27 3900.86,524.437 3887.5,527.5C 3886.53,529.396 3886.2,531.396 3886.5,533.5C 3947.87,536.083 3994.37,563.416 4026,615.5C 4042.48,649.038 4048.14,684.372 4043,721.5C 4033.8,780.099 4003.63,824.266 3952.5,854C 3921.97,871.064 3889.31,881.73 3854.5,886C 3838.22,887.831 3821.89,888.831 3805.5,889C 3698.17,889.5 3590.83,889.667 3483.5,889.5C 3483.5,662.167 3483.5,434.833 3483.5,207.5 Z M 3669.5,353.5 C 3700.17,353.333 3730.84,353.5 3761.5,354C 3783.36,356.179 3801.53,365.345 3816,381.5C 3826.32,397.463 3829.32,414.796 3825,433.5C 3819.95,452.883 3808.12,466.383 3789.5,474C 3778.93,478.393 3767.93,481.06 3756.5,482C 3727.5,482.5 3698.5,482.667 3669.5,482.5C 3669.5,439.5 3669.5,396.5 3669.5,353.5 Z M 3669.5,597.5 C 3701.5,597.333 3733.5,597.5 3765.5,598C 3787.73,598.297 3807.73,604.964 3825.5,618C 3840.94,632.39 3848.61,650.223 3848.5,671.5C 3847.61,706.224 3830.28,727.724 3796.5,736C 3787.27,738.08 3777.94,739.413 3768.5,740C 3735.5,740.5 3702.5,740.667 3669.5,740.5C 3669.5,692.833 3669.5,645.167 3669.5,597.5 Z"/></g>
<g><path style="opacity:0.992" fill="#000000" d="M 4654.5,255.5 C 4716.17,255.5 4777.83,255.5 4839.5,255.5C 4839.5,296.167 4839.5,336.833 4839.5,377.5C 4868.83,377.5 4898.17,377.5 4927.5,377.5C 4927.5,422.167 4927.5,466.833 4927.5,511.5C 4898.17,511.5 4868.83,511.5 4839.5,511.5C 4839.01,586.545 4839.51,661.545 4841,736.5C 4843.6,746.103 4849.77,751.936 4859.5,754C 4875.74,756.468 4891.74,755.302 4907.5,750.5C 4908.44,750.608 4909.28,750.941 4910,751.5C 4918.71,794.03 4927.54,836.53 4936.5,879C 4936.09,879.945 4935.43,880.612 4934.5,881C 4879.28,897.703 4823.28,901.036 4766.5,891C 4695.53,874.353 4658.37,829.52 4655,756.5C 4654.5,674.834 4654.33,593.167 4654.5,511.5C 4632.83,511.5 4611.17,511.5 4589.5,511.5C 4589.5,466.833 4589.5,422.167 4589.5,377.5C 4611.17,377.5 4632.83,377.5 4654.5,377.5C 4654.5,336.833 4654.5,296.167 4654.5,255.5 Z"/></g>
<g><path style="opacity:0.993" fill="#000000" d="M 4308.5,370.5 C 4347.71,369.359 4386.04,374.526 4423.5,386C 4505.76,416.302 4557.26,474.135 4578,559.5C 4589.75,613.731 4588.75,667.731 4575,721.5C 4545.95,816.881 4482.45,874.048 4384.5,893C 4333.06,901.76 4282.06,899.76 4231.5,887C 4142.09,859.586 4086.25,800.419 4064,709.5C 4052.25,655.269 4053.25,601.269 4067,547.5C 4098.66,446.848 4166.83,389.015 4271.5,374C 4283.95,372.465 4296.29,371.298 4308.5,370.5 Z M 4316.5,504.5 C 4341.85,503.923 4361.35,514.257 4375,535.5C 4386.81,556.267 4393.81,578.6 4396,602.5C 4400.23,638.586 4396.9,673.919 4386,708.5C 4379.71,726.773 4368.87,741.607 4353.5,753C 4318.44,769.195 4289.61,761.695 4267,730.5C 4254.91,709.809 4247.91,687.475 4246,663.5C 4241.91,628.521 4244.91,594.187 4255,560.5C 4260.93,543.259 4270.76,528.759 4284.5,517C 4294.27,510.271 4304.94,506.105 4316.5,504.5 Z"/></g>
</svg>
