<svg width="155" height="60" viewBox="0 0 155 60" fill="none" xmlns="http://www.w3.org/2000/svg">
<g clip-path="url(#clip0_6919_11180)">
<path d="M62.7478 19.4376C62.7478 19.2078 62.839 18.9875 63.0015 18.825C63.164 18.6626 63.3843 18.5713 63.6141 18.5713H66.9443C67.0583 18.5711 67.1711 18.5934 67.2764 18.6369C67.3817 18.6803 67.4774 18.7441 67.558 18.8245C67.6387 18.905 67.7027 19.0005 67.7465 19.1057C67.7902 19.2109 67.8128 19.3237 67.8129 19.4376V22.1519C67.8129 22.3819 67.9043 22.6026 68.067 22.7652C68.2297 22.9279 68.4503 23.0193 68.6803 23.0193H71.3055C71.5351 23.0199 71.7551 23.1114 71.9174 23.2737C72.0797 23.436 72.1712 23.656 72.1718 23.8856V36.1141C72.1721 36.228 72.1499 36.3408 72.1064 36.446C72.063 36.5513 71.9992 36.6469 71.9187 36.7274C71.8382 36.8079 71.7426 36.8717 71.6374 36.9151C71.5321 36.9585 71.4193 36.9807 71.3055 36.9804H68.6803C68.5663 36.9804 68.4534 37.0029 68.3481 37.0466C68.2428 37.0902 68.1471 37.1542 68.0666 37.2349C67.986 37.3156 67.9221 37.4113 67.8786 37.5167C67.8351 37.6221 67.8128 37.735 67.8129 37.849V40.561C67.8131 40.6751 67.7907 40.788 67.7471 40.8934C67.7035 40.9988 67.6395 41.0945 67.5588 41.1751C67.4781 41.2557 67.3823 41.3196 67.2768 41.363C67.1714 41.4065 67.0584 41.4287 66.9443 41.4284H63.6141C63.5002 41.4284 63.3875 41.406 63.2823 41.3624C63.1771 41.3188 63.0816 41.2549 63.0011 41.1743C62.9206 41.0937 62.8569 40.9981 62.8134 40.8929C62.7699 40.7876 62.7476 40.6749 62.7478 40.561V37.2284C62.7476 37.1146 62.7699 37.0018 62.8134 36.8966C62.8569 36.7913 62.9206 36.6957 63.0011 36.6151C63.0816 36.5346 63.1771 36.4707 63.2823 36.4271C63.3875 36.3834 63.5002 36.361 63.6141 36.361H66.2426C66.4725 36.361 66.6929 36.2698 66.8556 36.1073C67.0182 35.9449 67.1098 35.7246 67.1101 35.4947V24.5027C67.1105 24.3886 67.0884 24.2756 67.045 24.1701C67.0016 24.0646 66.9377 23.9687 66.8571 23.8879C66.7765 23.8072 66.6807 23.7432 66.5752 23.6997C66.4698 23.6561 66.3567 23.6338 66.2426 23.6341H63.6141C63.5002 23.6343 63.3874 23.612 63.2821 23.5684C63.1769 23.5248 63.0813 23.4609 63.0008 23.3803C62.9203 23.2998 62.8565 23.2041 62.8131 23.0988C62.7697 22.9935 62.7475 22.8806 62.7478 22.7667V19.4376ZM38.5798 19.4376C38.5798 19.3237 38.5573 19.211 38.5137 19.1058C38.4701 19.0006 38.4062 18.9051 38.3256 18.8246C38.2451 18.7442 38.1494 18.6804 38.0442 18.6369C37.939 18.5934 37.8262 18.5711 37.7123 18.5713H34.3775C34.1479 18.5719 33.9279 18.6634 33.7656 18.8257C33.6033 18.988 33.5118 19.208 33.5112 19.4376V22.1519C33.5112 22.3819 33.4198 22.6026 33.2571 22.7652C33.0945 22.9279 32.8738 23.0193 32.6438 23.0193H30.0186C29.7891 23.0199 29.5691 23.1114 29.4067 23.2737C29.2444 23.436 29.153 23.656 29.1523 23.8856V36.1141C29.152 36.228 29.1742 36.3408 29.2177 36.446C29.2611 36.5513 29.3249 36.6469 29.4054 36.7274C29.4859 36.8079 29.5815 36.8717 29.6868 36.9151C29.792 36.9585 29.9048 36.9807 30.0186 36.9804H32.6438C32.7578 36.9804 32.8707 37.0029 32.976 37.0466C33.0813 37.0902 33.177 37.1542 33.2575 37.2349C33.3381 37.3156 33.402 37.4113 33.4455 37.5167C33.489 37.6221 33.5114 37.735 33.5112 37.849V40.561C33.5115 40.7908 33.6028 41.0111 33.7652 41.1736C33.9276 41.3362 34.1477 41.4278 34.3775 41.4284H37.7123C37.8263 41.4286 37.9392 41.4063 38.0445 41.3627C38.1498 41.3192 38.2455 41.2553 38.326 41.1747C38.4066 41.0941 38.4705 40.9984 38.5141 40.8931C38.5576 40.7878 38.5799 40.675 38.5798 40.561V37.2284C38.5799 37.1145 38.5576 37.0016 38.5141 36.8963C38.4705 36.791 38.4066 36.6953 38.326 36.6147C38.2455 36.5342 38.1498 36.4703 38.0445 36.4267C37.9392 36.3832 37.8263 36.3609 37.7123 36.361H35.0861C34.8562 36.361 34.6357 36.2698 34.4731 36.1073C34.3105 35.9449 34.2189 35.7246 34.2186 35.4947V24.5027C34.2185 24.3887 34.2408 24.2758 34.2843 24.1704C34.3279 24.065 34.3917 23.9693 34.4723 23.8886C34.5529 23.8079 34.6485 23.7439 34.7538 23.7003C34.8592 23.6566 34.9721 23.6341 35.0861 23.6341H37.7123C37.8263 23.6344 37.9393 23.6122 38.0447 23.5687C38.15 23.5252 38.2458 23.4614 38.3264 23.3808C38.407 23.3001 38.4709 23.2044 38.5144 23.099C38.5578 22.9936 38.5801 22.8807 38.5798 22.7667V19.4376ZM47.5763 24.5679C47.5766 24.3761 47.653 24.1923 47.7886 24.0567C47.9242 23.9211 48.108 23.8447 48.2998 23.8444H55.6186C55.7593 23.8451 55.8966 23.8868 56.0139 23.9643C56.1313 24.0419 56.2234 24.1519 56.2792 24.281L57.4655 27.0216C57.5207 27.1512 57.6127 27.2617 57.7301 27.3395C57.8476 27.4173 57.9852 27.4589 58.1261 27.4593H60.5798C60.6747 27.459 60.7687 27.4774 60.8564 27.5135C60.9442 27.5496 61.024 27.6027 61.0912 27.6697C61.1584 27.7367 61.2117 27.8163 61.2481 27.9039C61.2845 27.9916 61.3032 28.0855 61.3032 28.1804V36.2707C61.3032 36.4626 61.227 36.6466 61.0913 36.7823C60.9557 36.9179 60.7716 36.9941 60.5798 36.9941H57.4746C57.2828 36.9941 57.0988 36.9179 56.9631 36.7823C56.8274 36.6466 56.7512 36.4626 56.7512 36.2707V28.7587C56.7512 28.5672 56.6753 28.3836 56.5401 28.248C56.405 28.1124 56.2215 28.0359 56.0301 28.0353H52.8495C52.658 28.0359 52.4746 28.1124 52.3394 28.248C52.2043 28.3836 52.1283 28.5672 52.1283 28.7587V36.2707C52.1283 36.4626 52.0521 36.6466 51.9165 36.7823C51.7808 36.9179 51.5968 36.9941 51.4049 36.9941H48.2998C48.2048 36.9941 48.1107 36.9754 48.0229 36.9391C47.9352 36.9027 47.8554 36.8494 47.7882 36.7823C47.7211 36.7151 47.6678 36.6353 47.6314 36.5476C47.5951 36.4598 47.5763 36.3657 47.5763 36.2707V24.5679Z" fill="#637381"/>
<path d="M40.207 24.5682C40.2076 24.3765 40.284 24.1928 40.4196 24.0573C40.5551 23.9217 40.7388 23.8453 40.9305 23.8447H44.0367C44.2283 23.8453 44.4119 23.9218 44.5472 24.0574C44.6826 24.1929 44.7587 24.3766 44.759 24.5682V36.271C44.759 36.4627 44.683 36.6465 44.5476 36.7822C44.4121 36.9178 44.2284 36.9941 44.0367 36.9944H40.9305C40.7386 36.9944 40.5546 36.9182 40.4189 36.7826C40.2832 36.6469 40.207 36.4629 40.207 36.271V24.5682Z" fill="#637381"/>
<path d="M9.86298 30.0524V30.129C10.4801 30.3427 11.0184 30.7313 11.4161 31.249C11.8326 31.8096 12.0465 32.495 12.023 33.193C12.0361 33.706 11.9377 34.2157 11.7344 34.687C11.5312 35.1582 11.228 35.5796 10.8458 35.9221C10.0701 36.6303 9.05015 37.0104 8.00012 36.9827H0.697266V23.8284H7.76355C8.87669 23.8284 9.80584 24.1496 10.551 24.7918C10.9152 25.0988 11.2052 25.4843 11.3992 25.9193C11.5932 26.3544 11.6861 26.8277 11.671 27.3038C11.6741 27.8915 11.5014 28.4666 11.175 28.9553C10.8498 29.4369 10.3943 29.8171 9.86298 30.0524ZM7.11669 26.7153H3.93612V29.0524H7.11669C7.28066 29.0595 7.44426 29.0316 7.59659 28.9705C7.74891 28.9094 7.88648 28.8165 8.00012 28.6981C8.22184 28.481 8.34869 28.1838 8.35327 27.873C8.35327 27.5713 8.23441 27.2821 8.02298 27.0673C7.90521 26.9482 7.76357 26.8553 7.60737 26.7949C7.45118 26.7344 7.28396 26.7065 7.11669 26.7153ZM3.93612 34.1164H7.39098C7.56689 34.1212 7.74184 34.0888 7.90433 34.0213C8.06683 33.9537 8.2132 33.8525 8.33384 33.7244C8.56927 33.4901 8.70412 33.1724 8.70641 32.8398C8.70544 32.6899 8.67157 32.5419 8.6072 32.4065C8.54282 32.271 8.44951 32.1513 8.33384 32.0558C8.07873 31.8178 7.73974 31.6904 7.39098 31.7016H3.93612V34.1164ZM23.8116 36.9827H13.5601V23.8284H23.8116V26.9656H16.7978V28.8524H22.8207V31.7987H16.7978V33.841H23.8116V36.9816V36.9827ZM86.9727 31.489H90.2881C90.1547 33.087 89.4071 34.5712 88.2024 35.6296C86.9853 36.7153 85.4447 37.2581 83.5796 37.2581C81.5407 37.2581 79.8927 36.6044 78.6367 35.297C77.3807 33.9884 76.7521 32.3667 76.751 30.4284C76.751 28.4833 77.3796 26.849 78.6356 25.5256C79.8916 24.2021 81.5384 23.5358 83.5796 23.5244C85.399 23.5244 86.9167 24.0604 88.1316 25.1324C89.3268 26.1523 90.0846 27.5925 90.2481 29.1553H86.895C86.7224 28.443 86.3095 27.8121 85.7258 27.369C85.0994 26.9015 84.3293 26.6679 83.5487 26.7084C82.463 26.721 81.6058 27.081 80.9773 27.7884C80.3563 28.5128 80.0278 29.4427 80.0561 30.3964C80.0311 31.3594 80.367 32.297 80.9978 33.025C81.6184 33.7267 82.479 34.0787 83.5807 34.0787C84.3758 34.1041 85.1564 33.8623 85.7978 33.3918C86.402 32.9158 86.8182 32.2413 86.9727 31.4878V31.489ZM94.5956 36.9621H91.3578V23.8193H98.1464C99.559 23.8193 100.684 24.1393 101.52 24.7793C102.357 25.4193 102.782 26.3221 102.794 27.4878C102.794 28.7301 102.364 29.6593 101.501 30.2741V30.3518C102.625 30.6261 103.188 31.4696 103.188 32.881V36.9621H99.9498V33.4513C99.9498 32.9667 99.7018 32.7256 99.2058 32.7267H94.5944V36.9633L94.5956 36.9621ZM94.5956 26.9587V29.8616H97.8721C98.3156 29.8844 98.7521 29.745 99.0996 29.4684C99.2576 29.3341 99.3824 29.1651 99.4643 28.9746C99.5461 28.7841 99.5829 28.5772 99.5716 28.3701C99.5815 28.1719 99.5439 27.9741 99.4618 27.7934C99.3796 27.6126 99.2554 27.4542 99.0996 27.3313C98.7496 27.0708 98.3205 26.9392 97.8847 26.9587H94.5956ZM112.292 23.8204H115.882L110.742 32.1758V36.9644H107.505V32.1941L102.346 23.8193H106.015L109.151 29.1141L112.292 23.8204ZM123.407 23.8204C124.019 23.805 124.628 23.9152 125.196 24.1442C125.764 24.3732 126.279 24.7161 126.709 25.1518C127.599 26.0273 128.044 27.129 128.042 28.4547C128.042 29.8147 127.591 30.9347 126.689 31.8113C126.26 32.2398 125.748 32.577 125.185 32.8025C124.622 33.028 124.019 33.1371 123.413 33.1233H119.855V36.969H116.62V23.8204H123.407ZM119.855 30.0558H123.113C123.54 30.0673 123.953 29.913 124.269 29.625C124.427 29.4782 124.55 29.2988 124.632 29.0993C124.713 28.8997 124.75 28.6848 124.74 28.4696C124.745 28.2638 124.703 28.0594 124.617 27.8724C124.531 27.6853 124.403 27.5205 124.244 27.3907C123.935 27.1051 123.527 26.9507 123.106 26.9598H119.855V30.057V30.0558ZM128.369 23.8204H140.122V26.9564H135.864V36.961H132.628V26.9587H128.369V23.8204ZM151.943 35.2958C150.662 36.6021 148.982 37.2558 146.901 37.2581C144.821 37.2604 143.141 36.6067 141.862 35.297C140.58 33.9758 139.938 32.353 139.938 30.4284C139.938 28.505 140.58 26.8707 141.862 25.5256C143.142 24.1918 144.822 23.5244 146.901 23.5244C148.981 23.5244 150.661 24.1918 151.943 25.5244C153.224 26.8593 153.865 28.4936 153.865 30.4296C153.865 32.3644 153.224 33.9861 151.943 35.2958ZM146.901 34.0798C148.014 34.0798 148.903 33.7198 149.569 32.9998C150.231 32.2944 150.59 31.3577 150.569 30.3907C150.582 29.9116 150.5 29.4347 150.329 28.9872C150.157 28.5397 149.899 28.1304 149.569 27.7827C148.916 27.0616 148.026 26.7016 146.901 26.7027C145.776 26.7027 144.88 27.0638 144.213 27.7827C143.558 28.4907 143.206 29.4267 143.232 30.3907C143.211 31.3542 143.562 32.2889 144.213 32.9998C144.88 33.7198 145.776 34.0798 146.901 34.0798Z" fill="#637381"/>
</g>
<defs>
<clipPath id="clip0_6919_11180">
<rect width="154.286" height="24" fill="white" transform="translate(0.697266 18)"/>
</clipPath>
</defs>
</svg>
