<svg width="119" height="60" viewBox="0 0 119 60" fill="none" xmlns="http://www.w3.org/2000/svg">
<g clip-path="url(#clip0_6919_11170)">
<path d="M17.2773 38H28.6039V35.013H20.7004V31.3494H27.2532V28.3599H20.7004V24.987H28.6515V22H17.2773V38Z" fill="#637381"/>
<path d="M42.2423 32.0711L34.8224 22H29.7129L31.3041 24.0247V38.0501H34.7246V27.543L42.3876 38H45.6653V22H42.2423V32.0711Z" fill="#637381"/>
<path d="M12.1202 29.7682C13.6237 29.48 14.8766 28.0818 14.8766 26.1071C14.8666 23.9746 13.3255 22 10.2408 22H0.3125L1.85361 23.9746V38.0075H10.5866C13.6738 38.0075 15.2625 36.0805 15.2625 33.6699C15.2049 31.6877 13.8442 30.0013 12.1202 29.7682ZM5.27663 25.007H9.56669C10.7244 25.007 11.4461 25.6836 11.4461 26.6935C11.4461 27.7034 10.7244 28.38 9.56669 28.38H5.27663V25.007ZM9.70952 35.0305H5.27663V31.3494H9.70952C11.0126 31.3494 11.7343 32.1688 11.7343 33.1812C11.7343 34.3364 10.9625 35.013 9.70952 35.013V35.0305Z" fill="#637381"/>
<path d="M95.7407 32.0711H97.5249V33.953C96.6021 34.717 95.4452 35.1416 94.2472 35.1558C91.403 35.1558 89.3808 32.9883 89.3808 30.0489C89.3808 27.1095 91.403 24.9394 94.2472 24.9394C94.9781 24.9454 95.6959 25.1338 96.3357 25.4873C96.9754 25.8409 97.5168 26.3485 97.9108 26.9641L100.61 25.4606C99.4544 23.6388 97.4272 22 94.1996 22C89.669 22 85.9102 25.1323 85.9102 30.0013C85.9102 34.8702 89.6214 38 94.1996 38C95.436 38.0205 96.6621 37.7726 97.7934 37.2734C98.9247 36.7741 99.9343 36.0354 100.752 35.1082V29.1818H93.4278L95.7407 32.0711Z" fill="#637381"/>
<path d="M80.319 32.0711L72.8966 22H67.7871L69.3783 24.0247V38.0501H72.8014V27.543L80.4643 38H83.7395V22H80.319V32.0711Z" fill="#637381"/>
<path d="M112.073 22H105.473L107.062 24.0247L106.774 24.794L101.664 38.0501H105.521L106.523 35.3488H113.427L114.429 38.0501H118.283L112.073 22ZM107.403 32.3142L109.908 25.4205L112.414 32.3142H107.403Z" fill="#637381"/>
<path d="M65.8117 22H62.3887V38.0501H65.8117V22Z" fill="#637381"/>
<path d="M59.6406 24.7464V22H47.5898V24.987H55.1576L47.5898 35.2536V38H59.7859V35.013H52.0252L59.6406 24.7464Z" fill="#637381"/>
</g>
<defs>
<clipPath id="clip0_6919_11170">
<rect width="118.064" height="16" fill="white" transform="translate(0.3125 22)"/>
</clipPath>
</defs>
</svg>
