<svg width="140" height="29" viewBox="0 0 140 29" fill="none" xmlns="http://www.w3.org/2000/svg">
<g clip-path="url(#clip0_6919_11073)">
<path d="M8.44133 12.2658L13.879 6.82842L19.3195 12.2687L22.4835 9.10472L13.879 0.5L5.27734 9.10184L8.44133 12.2658Z" fill="white"/>
<path d="M6.2069 14.4989L3.04297 11.335L-0.121123 14.4991L3.04281 17.663L6.2069 14.4989Z" fill="white"/>
<path d="M8.44207 16.7351L13.8797 22.1725L19.32 16.7324L22.4858 19.8946L22.4842 19.8964L13.8797 28.5009L5.27786 19.8993L5.27344 19.8949L8.44207 16.7351Z" fill="white"/>
<path d="M24.7168 17.6646L27.8809 14.5005L24.7169 11.3366L21.5528 14.5006L24.7168 17.6646Z" fill="white"/>
<path d="M17.0895 14.4987H17.0908L13.8802 11.2881L11.5075 13.6608H11.5072L11.2348 13.9335L10.6724 14.4959L10.668 14.5003L10.6724 14.5049L13.8802 17.7127L17.0908 14.5021L17.0924 14.5003L17.0895 14.4987Z" fill="white"/>
<path d="M32.8125 7.28516H39.694C41.402 7.28516 42.6935 7.72348 43.5688 8.60011C44.2462 9.27904 44.5848 10.1205 44.5848 11.1243V11.1668C44.5848 11.5909 44.5323 11.9658 44.4268 12.2909C44.3216 12.6164 44.1809 12.9094 44.0051 13.1711C43.8297 13.4329 43.6258 13.6627 43.3941 13.8604C43.1621 14.0585 42.9129 14.2284 42.6459 14.3695C43.5044 14.695 44.1803 15.1366 44.673 15.6953C45.1655 16.2541 45.4121 17.0284 45.4121 18.018V18.0602C45.4121 18.7392 45.2816 19.333 45.0204 19.8423C44.7592 20.3511 44.3851 20.7755 43.8979 21.115C43.4107 21.4544 42.8248 21.7088 42.1402 21.8786C41.4555 22.0482 40.6967 22.1329 39.8641 22.1329H32.8125V7.28516ZM39.006 13.2878C39.7274 13.2878 40.3002 13.1644 40.7241 12.9167C41.1483 12.6693 41.3604 12.2697 41.3604 11.7183V11.6759C41.3604 11.1812 41.1764 10.803 40.8088 10.5411C40.4411 10.2795 39.9107 10.1486 39.2181 10.1486H35.994V13.2878H39.006ZM39.8758 19.2697C40.597 19.2697 41.1622 19.1392 41.5727 18.8774C41.9827 18.6158 42.1879 18.2091 42.1879 17.6575V17.6153C42.1879 17.1204 41.9969 16.728 41.6151 16.4379C41.2332 16.1484 40.6182 16.0033 39.7697 16.0033H35.994V19.2699L39.8758 19.2697Z" fill="white"/>
<path d="M49.5098 7.28516H52.7766V22.1334H49.5098V7.28516Z" fill="white"/>
<path d="M57.7246 7.28516H60.7362L67.6938 16.4275V7.28516H70.918V22.1334H68.1394L60.9485 12.6943V22.1334H57.7246V7.28516Z" fill="white"/>
<path d="M80.8074 7.1792H83.8192L90.183 22.1333H86.7678L85.4102 18.8033H79.1315L77.7741 22.1333H74.4434L80.8074 7.1792ZM84.2436 15.9182L82.2707 11.1033L80.2985 15.9182H84.2436Z" fill="white"/>
<path d="M93.7109 7.28516H96.7232L103.68 16.4275V7.28516H106.905V22.1334H104.126L96.9351 12.6943V22.1334H93.7109V7.28516Z" fill="white"/>
<path d="M118.66 22.3878C117.571 22.3878 116.56 22.1897 115.626 21.7941C114.693 21.3984 113.887 20.8573 113.208 20.1713C112.53 19.4855 111.999 18.6758 111.618 17.7426C111.236 16.8091 111.045 15.8122 111.045 14.7515V14.7093C111.045 13.6487 111.236 12.6555 111.618 11.7291C111.999 10.8029 112.53 9.98975 113.208 9.28981C113.887 8.58987 114.7 8.0381 115.647 7.63516C116.595 7.23223 117.642 7.03076 118.787 7.03076C119.48 7.03076 120.112 7.0876 120.685 7.20038C121.258 7.31383 121.777 7.46908 122.244 7.66701C122.711 7.86516 123.142 8.10555 123.539 8.38818C123.934 8.67125 124.302 8.98219 124.641 9.32165L122.563 11.7185C121.982 11.1955 121.392 10.785 120.791 10.4882C120.19 10.1914 119.515 10.0428 118.766 10.0428C118.143 10.0428 117.567 10.1631 117.037 10.4035C116.507 10.6439 116.051 10.9761 115.669 11.4002C115.287 11.8244 114.99 12.316 114.778 12.8744C114.566 13.4333 114.46 14.0306 114.46 14.6668V14.7091C114.46 15.3453 114.566 15.9466 114.778 16.5119C114.99 17.0778 115.283 17.5725 115.658 17.9967C116.033 18.4209 116.485 18.757 117.016 19.0045C117.546 19.2522 118.129 19.3756 118.766 19.3756C119.614 19.3756 120.331 19.2201 120.918 18.9089C121.505 18.5982 122.089 18.1738 122.669 17.6362L124.747 19.7363C124.365 20.1465 123.969 20.5143 123.56 20.8391C123.149 21.1647 122.7 21.4438 122.212 21.6773C121.725 21.9104 121.19 22.0875 120.611 22.2074C120.031 22.3275 119.381 22.3878 118.66 22.3878Z" fill="white"/>
<path d="M128.59 7.28516H139.768V10.1913H131.814V13.2033H138.814V16.1093H131.814V19.2275H139.875V22.1334H128.59V7.28516Z" fill="white"/>
</g>
<defs>
<clipPath id="clip0_6919_11073">
<rect width="139.77" height="28" fill="white" transform="translate(0 0.5)"/>
</clipPath>
</defs>
</svg>
