<svg width="120" height="60" viewBox="0 0 120 60" fill="none" xmlns="http://www.w3.org/2000/svg">
<g clip-path="url(#clip0_6919_11185)">
<path d="M25.9414 30.1607C25.9414 34.134 25.9414 38.0807 25.9414 42.054C25.9414 42.4273 25.808 42.534 25.4614 42.534C20.2614 42.534 15.0614 42.534 9.86138 42.534C9.56805 42.534 9.35471 42.454 9.14138 42.2407C6.58138 39.6807 4.07471 37.1207 1.51471 34.5607C1.35471 34.4007 1.24805 34.214 1.24805 33.974C1.24805 28.694 1.24805 23.414 1.24805 18.1073C1.24805 17.7607 1.38138 17.6807 1.67471 17.6807C9.59471 17.6807 17.5414 17.6807 25.5147 17.6807C25.888 17.6807 25.9414 17.814 25.9414 18.1607C25.9414 22.0807 25.9414 26.134 25.9414 30.1607Z" fill="#637381"/>
<path d="M73.1147 26.3469C73.1147 23.5736 73.1147 20.8802 73.1147 18.1602C73.1147 17.8669 73.168 17.7336 73.488 17.7869C73.968 17.8402 74.3947 17.8402 74.848 17.7869C75.1413 17.7869 75.1947 17.8669 75.1947 18.1336C75.1947 19.3336 75.1947 20.5336 75.1947 21.7069C75.1947 25.1469 75.1947 28.6136 75.1947 32.1069C75.1947 32.4536 75.1147 32.5336 74.768 32.5336C74.2613 32.4802 73.7013 32.5336 73.1413 32.5336C72.8747 32.5336 72.768 32.4802 72.7147 32.1869C71.8613 28.9602 70.9547 25.7069 70.1013 22.5069C70.048 22.3736 70.048 22.2402 69.9413 22.1336C69.9413 25.4669 69.9413 28.7736 69.9413 32.1069C69.9413 32.4536 69.8613 32.5869 69.5147 32.5336C69.088 32.4802 68.6613 32.4802 68.2347 32.5336C67.888 32.5869 67.8613 32.4536 67.8613 32.1602C67.8613 29.6536 67.8613 27.1202 67.8613 24.6669C67.8613 22.5336 67.8613 20.3736 67.8613 18.2402C67.8613 17.9469 67.9147 17.8669 68.2347 17.8669C68.9547 17.9202 69.6747 17.9202 70.4213 17.8669C70.688 17.8669 70.7947 17.9469 70.848 18.2136C71.5413 20.8536 72.2613 23.4669 72.928 26.1069C73.008 26.1336 73.008 26.2669 73.1147 26.3469Z" fill="#637381"/>
<path d="M47.8094 24.6134C47.8627 23.7068 47.7294 22.2134 47.8627 20.7734C48.076 18.2934 49.7827 17.4934 51.7294 17.7068C53.5694 17.9201 54.5027 18.9868 54.636 20.9868C54.6894 21.4934 54.636 22.0001 54.636 22.5601C54.636 22.7734 54.556 22.8268 54.3694 22.8268C53.8094 22.8268 53.2494 22.8268 52.716 22.8268C52.5027 22.8268 52.4494 22.7468 52.4494 22.5601C52.4494 22.0001 52.4494 21.4934 52.4494 20.9334C52.396 20.0801 51.8627 19.6001 50.956 19.7868C50.5294 19.8668 50.236 20.1601 50.156 20.6401C50.1027 20.8534 50.1027 21.1201 50.1027 21.3334C50.1027 23.8934 50.1027 26.4534 50.1027 29.0134C50.1027 29.1734 50.1027 29.3601 50.156 29.5201C50.236 30.2401 50.6627 30.5868 51.3827 30.5334C52.076 30.4801 52.4494 30.1068 52.5027 29.4134C52.556 28.7201 52.556 28.0534 52.5027 27.3601C52.5027 27.0934 52.556 26.9868 52.8494 27.0134C53.356 27.0668 53.916 27.0134 54.476 27.0134C54.6094 27.0134 54.7427 27.0134 54.7427 27.2268C54.6894 28.2401 54.8227 29.2801 54.6094 30.2668C54.2627 31.7068 53.276 32.5601 51.7827 32.6934C51.356 32.7468 50.876 32.7468 50.4494 32.6401C48.956 32.3468 48.0494 31.3068 47.9427 29.8134C47.9427 29.6001 47.8894 29.3868 47.8894 29.2268C47.756 27.8401 47.8094 26.5334 47.8094 24.6134Z" fill="#637381"/>
<path d="M85.9136 21.7875C85.567 21.7875 85.1403 21.9208 84.9003 21.7341C84.6336 21.5741 84.8203 21.0941 84.767 20.7475C84.687 20.0541 84.287 19.6808 83.647 19.6808C82.9536 19.6808 82.6336 20.0275 82.527 20.6941C82.3936 21.5475 82.6603 22.3208 83.2203 22.9875C83.5936 23.4675 84.0736 23.8941 84.5003 24.3208C85.087 24.8808 85.647 25.3875 86.127 26.0808C87.0603 27.4408 87.247 28.9875 86.767 30.5608C86.4203 31.6808 85.7003 32.3208 84.5803 32.5341C83.8603 32.6941 83.167 32.6675 82.447 32.4808C81.167 32.1875 80.367 31.1475 80.1803 29.6275C80.127 29.1475 80.1803 28.6941 80.127 28.2141C80.127 28.0008 80.207 27.9475 80.3936 27.9475C80.9536 27.9475 81.5136 27.9475 82.047 27.9475C82.2603 27.9475 82.3136 28.0275 82.3136 28.2408C82.3136 28.7208 82.2603 29.1475 82.3936 29.6008C82.527 30.1608 82.8736 30.4541 83.5136 30.4541C84.1003 30.4541 84.5003 30.1875 84.6603 29.6541C84.8736 28.8808 84.7136 28.1075 84.287 27.4408C83.9136 26.8541 83.3803 26.3208 82.847 25.8675C82.287 25.3608 81.7803 24.8808 81.3003 24.2941C80.2336 22.9341 79.967 21.3875 80.3936 19.7875C80.687 18.5075 81.5403 17.7875 82.8736 17.5741C83.4603 17.4941 84.0203 17.4941 84.5803 17.6275C85.8603 17.9208 86.7136 18.8541 86.8736 20.2408C86.927 20.6141 86.9536 21.0141 86.9536 21.4408C86.9536 21.6541 86.9003 21.7341 86.687 21.7341C86.4736 21.7875 86.207 21.8408 85.9136 21.7875C85.9136 21.8408 85.9136 21.8408 85.9136 21.7875Z" fill="#637381"/>
<path d="M90.2079 26.2671C90.2079 24.3471 90.2079 22.4271 90.2079 20.4804C90.2079 19.9204 90.2079 19.9204 89.7013 19.9204C89.1946 19.9204 88.6879 19.9204 88.1279 19.9204C87.8612 19.9204 87.7812 19.8671 87.7812 19.6271C87.7812 19.1204 87.7812 18.6138 87.7812 18.0538C87.7812 17.8404 87.8346 17.7871 88.0479 17.7871C90.2613 17.7871 92.4479 17.7871 94.6612 17.7871C94.8746 17.7871 94.9279 17.8404 94.9279 18.0538C94.9279 18.6138 94.9279 19.1204 94.9279 19.6804C94.9279 19.8938 94.8746 19.9738 94.6612 19.9738C94.0746 19.9738 93.4613 19.9738 92.9013 19.9738C92.5546 19.9738 92.5279 20.0538 92.5279 20.3471C92.5279 24.2671 92.5279 28.1871 92.5279 32.1071C92.5279 32.4538 92.4479 32.5871 92.1013 32.5871C91.5946 32.5338 91.0879 32.5338 90.5546 32.5871C90.2612 32.5871 90.2079 32.5071 90.2079 32.2138C90.2079 30.1871 90.2079 28.2404 90.2079 26.2671Z" fill="#637381"/>
<path d="M42.3941 26.2404C42.3941 24.2404 42.3941 22.2671 42.3941 20.2671C42.3941 19.9738 42.3141 19.8938 42.0475 19.9204C41.4875 19.9738 40.9008 19.9204 40.3408 19.9204C40.0475 19.9204 39.9941 19.8404 39.9941 19.5738C39.9941 19.0671 39.9941 18.5871 39.9941 18.0804C39.9941 17.8671 40.0475 17.7871 40.2875 17.7871C42.4741 17.7871 44.6875 17.7871 46.8475 17.7871C47.0075 17.7871 47.1141 17.8404 47.1141 18.0538C47.1141 18.6138 47.1141 19.1738 47.1141 19.6804C47.1141 19.8938 47.0341 19.9471 46.8475 19.9471C46.2608 19.9471 45.6475 19.9471 45.0875 19.9471C44.7941 19.9471 44.7141 20.0271 44.7141 20.3204C44.7141 24.2404 44.7141 28.1604 44.7141 32.0804C44.7141 32.4538 44.5808 32.5604 44.2341 32.5604C43.7541 32.5071 43.3008 32.5071 42.7941 32.5604C42.5008 32.5604 42.3675 32.4804 42.3675 32.1871C42.4208 30.1871 42.3941 28.1871 42.3941 26.2404Z" fill="#637381"/>
<path d="M98.9539 19.6534C98.8739 19.8134 98.9006 20 98.9006 20.1334C98.9006 24.1334 98.9006 28.1067 98.9006 32.1067C98.9006 32.24 98.9806 32.4534 98.8206 32.48C98.6072 32.5334 98.3139 32.5334 98.1006 32.48C98.0206 32.48 98.0472 32.2667 98.0472 32.1867C98.0472 31.3867 98.0472 30.5334 98.0472 29.7067C98.0472 25.8667 98.0472 22.0267 98.0472 18.1867C98.0472 17.84 98.1006 17.7067 98.4739 17.7067C99.2739 17.76 99.2739 17.7067 99.5939 18.48C100.874 22.1334 102.207 25.8667 103.461 29.52C103.514 29.6534 103.541 29.7867 103.594 29.8934C103.727 29.7334 103.674 29.5467 103.674 29.4134C103.674 25.6534 103.674 21.8667 103.674 18.1067C103.674 17.9734 103.594 17.76 103.754 17.7334C103.967 17.68 104.234 17.68 104.474 17.7334C104.554 17.7334 104.527 17.8934 104.527 18C104.527 18.64 104.527 19.28 104.527 19.8667C104.527 23.92 104.527 27.9734 104.527 32.0267C104.527 32.32 104.447 32.4534 104.154 32.4C103.461 32.3467 103.461 32.4 103.247 31.76C101.887 27.7867 100.474 23.84 99.1139 19.8667C99.0339 19.92 99.0072 19.7867 98.9539 19.6534Z" fill="#637381"/>
<path d="M78.9541 25.2014C78.9541 27.4948 78.9541 29.8148 78.9541 32.1081C78.9541 32.4548 78.9008 32.5881 78.5274 32.5348C78.0208 32.4814 77.4608 32.5348 76.9008 32.5348C76.6874 32.5348 76.6074 32.4548 76.6074 32.2414C76.6074 31.2548 76.6074 30.2414 76.6074 29.2548C76.6074 25.6014 76.6074 21.9214 76.6074 18.2681C76.6074 17.9214 76.6874 17.7881 77.0341 17.8414C77.5408 17.8948 78.0474 17.8948 78.6074 17.8414C78.8741 17.8414 78.9541 17.9214 78.9541 18.1881C78.9541 20.5081 78.9541 22.8548 78.9541 25.2014Z" fill="#637381"/>
<path d="M66.3408 25.2009C66.3408 27.4942 66.3408 29.8409 66.3408 32.1609C66.3408 32.5075 66.2608 32.5875 65.9141 32.5342C65.4341 32.4809 64.9808 32.4809 64.5008 32.5342C64.1275 32.5875 63.9941 32.4542 63.9941 32.0275C63.9941 28.3209 63.9941 24.6409 63.9941 20.9342C63.9941 20.0009 63.9941 19.0942 63.9941 18.1609C63.9941 17.8142 64.0741 17.7342 64.4208 17.7875C64.9275 17.8409 65.4075 17.8409 65.9141 17.7875C66.2608 17.7875 66.3408 17.8675 66.3408 18.2142C66.3408 20.5609 66.3408 22.8542 66.3408 25.2009Z" fill="#637381"/>
<path d="M38.9005 25.1736C38.9005 27.5202 38.9005 29.8669 38.9005 32.2136C38.9005 32.5069 38.8472 32.5869 38.5539 32.5869C38.0472 32.5336 37.5405 32.5336 36.9805 32.5869C36.6872 32.5869 36.5539 32.5069 36.6072 32.2136C36.6072 28.8802 36.6072 25.5736 36.6072 22.2402C36.6072 20.9069 36.6072 19.5469 36.6072 18.2402C36.6072 17.9736 36.6605 17.8936 36.9539 17.8936C37.4605 17.9469 37.9672 17.9469 38.5272 17.8936C38.8739 17.8936 38.9539 17.9736 38.9539 18.3202C38.8472 20.5069 38.9005 22.8536 38.9005 25.1736Z" fill="#637381"/>
<path d="M105.7 25.2004C105.7 22.8538 105.7 20.5604 105.7 18.2138C105.7 17.8671 105.78 17.7871 106.127 17.7871C107.78 17.7871 109.46 17.8404 111.114 17.7871C111.54 17.7871 111.46 18.0004 111.46 18.2671C111.46 18.4804 111.54 18.7471 111.114 18.7471C109.754 18.6938 108.394 18.7471 107.034 18.7471C106.74 18.7471 106.687 18.8271 106.687 19.0938C106.687 20.8538 106.687 22.5871 106.687 24.2938C106.687 24.5871 106.74 24.6671 107.034 24.6671C108.154 24.6671 109.247 24.6671 110.367 24.6671C110.74 24.6671 110.714 24.8804 110.714 25.0938C110.714 25.3071 110.847 25.6004 110.367 25.5738C109.247 25.5204 108.154 25.5738 107.034 25.5738C106.74 25.5738 106.687 25.6538 106.687 25.9471C106.687 27.7338 106.687 29.5204 106.687 31.3071C106.687 31.6004 106.74 31.7338 107.06 31.7338C108.394 31.7338 109.7 31.7338 111.034 31.7338C111.407 31.7338 111.46 31.8671 111.46 32.2138C111.46 32.5071 111.407 32.6404 111.034 32.6404C109.38 32.5871 107.7 32.6404 106.047 32.6404C105.754 32.6404 105.674 32.5604 105.674 32.2938C105.7 29.8404 105.7 27.5471 105.7 25.2004Z" fill="#637381"/>
<path d="M116.527 25.6271C116.527 27.8138 116.527 29.9738 116.527 32.1604C116.527 32.4538 116.473 32.6404 116.153 32.5338C116.02 32.5338 115.887 32.5338 115.78 32.5338C115.62 32.5338 115.513 32.4804 115.567 32.3204C115.567 32.2404 115.567 32.1604 115.567 32.0271C115.567 27.7338 115.567 23.4138 115.567 19.1204C115.567 18.7738 115.487 18.6938 115.14 18.6938C114.42 18.7471 113.647 18.6938 112.927 18.6938C112.66 18.6938 112.58 18.6404 112.58 18.3471C112.58 17.7871 112.58 17.7871 113.14 17.7871C115.14 17.7871 117.14 17.7871 119.14 17.7871C119.62 17.7871 119.487 18.0538 119.513 18.2938C119.567 18.5871 119.46 18.7204 119.14 18.7204C118.367 18.6671 117.647 18.7204 116.873 18.7204C116.58 18.7204 116.527 18.8004 116.527 19.0671C116.527 21.2538 116.527 23.4138 116.527 25.6271Z" fill="#637381"/>
<path d="M95.1672 31.6534C95.1672 31.4934 95.2205 31.3067 95.1672 31.1734C95.0872 30.8 95.3005 30.7467 95.6472 30.6934C96.0738 30.6934 96.2072 30.7734 96.1538 31.2C96.1005 31.5467 96.1538 31.92 96.1538 32.2667C96.1538 32.48 96.1005 32.56 95.8872 32.56C95.1938 32.6134 95.1938 32.6134 95.1938 31.92C95.1672 31.8134 95.1672 31.7334 95.1672 31.6534Z" fill="#637381"/>
<path d="M78.0738 39.8672C78.2338 38.6672 78.4471 37.4672 78.6338 36.2405C78.6338 36.1072 78.6338 35.9472 78.8471 35.9739C79.0605 35.9739 79.0071 36.1339 79.0605 36.2672C79.2205 37.3872 79.4071 38.5339 79.5671 39.6272C79.5671 39.7072 79.5671 39.8405 79.7005 39.9205C79.9138 38.6939 80.0738 37.4939 80.2871 36.2939C80.2871 36.2405 80.2871 36.1605 80.2871 36.1339C80.2871 36.0005 80.3405 35.9205 80.5005 35.9205C80.6338 35.9739 80.5805 36.0539 80.5805 36.1339C80.5005 36.7205 80.4205 37.3339 80.2871 37.9205C80.1538 38.7205 80.0205 39.5472 79.9138 40.3472C79.8605 40.4805 79.9138 40.6405 79.7005 40.6405C79.4338 40.6405 79.4338 40.4805 79.4338 40.2939C79.2738 39.1739 79.0871 38.0805 78.8738 36.8805C78.7138 37.3605 78.6605 37.7872 78.5805 38.2139C78.4471 38.9072 78.3671 39.6272 78.2338 40.2939C78.1805 40.4272 78.2338 40.6405 77.9671 40.6405C77.6738 40.6405 77.7005 40.4805 77.6738 40.2939C77.4605 38.9605 77.2471 37.6005 77.0338 36.2939C77.0338 36.1605 76.9805 36.0805 76.9805 35.9472C76.9805 35.8939 77.0605 35.8672 77.1138 35.8672C77.2738 35.8672 77.2738 36.0272 77.2738 36.1339C77.4338 37.1472 77.6205 38.2139 77.7805 39.2539C77.8338 39.4139 77.8338 39.6005 77.8605 39.7605C77.9405 39.8405 77.9405 39.9205 77.9138 40.0272C77.9938 40.0805 77.9938 39.9472 78.0738 39.8672Z" fill="#637381"/>
<path d="M105.701 39.7873C105.701 38.6673 105.701 37.5206 105.701 36.4273C105.701 36.2939 105.701 36.2139 105.701 36.0806C105.701 36.0006 105.754 35.9473 105.834 35.9473C105.914 35.9473 105.968 36.0006 105.968 36.0806C105.968 36.1606 105.968 36.2406 105.968 36.3473C105.968 37.6806 105.968 39.0406 105.968 40.3473C105.968 40.4806 106.101 40.6406 105.834 40.6939C105.568 40.7473 105.568 40.5606 105.541 40.4006C105.114 39.1739 104.688 37.9739 104.208 36.7473C104.208 36.8273 104.154 36.9073 104.154 37.0406C104.154 38.1606 104.154 39.3073 104.154 40.4006C104.154 40.5339 104.234 40.6939 104.021 40.6939C103.808 40.6939 103.888 40.4806 103.888 40.4006C103.888 39.0406 103.888 37.6806 103.888 36.3206C103.888 36.1873 103.808 36.0273 104.048 35.9739C104.261 35.9739 104.314 36.1073 104.394 36.2673C104.768 37.3873 105.194 38.5339 105.594 39.6273C105.648 39.6539 105.648 39.7339 105.701 39.7873Z" fill="#637381"/>
<path d="M87.834 36.7469C87.834 37.9469 87.834 39.0936 87.834 40.2936C87.834 40.4269 87.834 40.5069 87.834 40.6402C87.834 40.7202 87.754 40.7736 87.7007 40.7736C87.6207 40.7736 87.5673 40.7202 87.5673 40.6402C87.5673 40.5602 87.5673 40.4802 87.5673 40.3469C87.5673 39.0669 87.5673 37.7869 87.5673 36.4802C87.5673 36.3202 87.4073 36.0536 87.7273 35.9736C88.0207 35.9202 88.0207 36.1869 88.1007 36.3469C88.474 37.4136 88.874 38.5336 89.2473 39.5736C89.3007 39.6269 89.3007 39.7069 89.3807 39.7336C89.3807 38.9336 89.3807 38.1069 89.3807 37.2536C89.3807 36.8802 89.3807 36.4802 89.3807 36.1069C89.3807 36.0269 89.3807 35.8936 89.514 35.8936C89.6473 35.8936 89.6473 36.0269 89.6473 36.1069C89.6473 37.5469 89.6473 39.0136 89.6473 40.4536C89.6473 40.5336 89.6473 40.6136 89.514 40.6669C89.354 40.6669 89.2473 40.5869 89.2207 40.4536C88.9273 39.6002 88.634 38.8002 88.314 37.9469C88.1807 37.5202 88.0207 37.1469 87.8873 36.7202C87.8607 36.7469 87.834 36.7469 87.834 36.7469Z" fill="#637381"/>
<path d="M58.8748 39.8414C58.8748 38.6947 58.8748 37.5747 58.8748 36.4814C58.8748 36.3481 58.8748 36.2681 58.8748 36.1347C58.8748 36.0547 58.9282 36.0014 59.0082 36.0014C59.1415 36.0014 59.1415 36.0547 59.1415 36.1347C59.1415 36.2147 59.1415 36.2947 59.1415 36.4281C59.1415 37.7081 59.1415 38.9881 59.1415 40.2947C59.1415 40.4281 59.2748 40.6681 59.0082 40.7214C58.7148 40.8014 58.7148 40.5081 58.6615 40.3481C58.2882 39.2281 57.8882 38.1347 57.5148 37.0147C57.4615 36.9347 57.4348 36.8547 57.3548 36.8014C57.3548 37.9214 57.3548 39.0681 57.3548 40.1614C57.3548 40.3214 57.5148 40.7214 57.2215 40.7214C56.9282 40.7214 57.0615 40.3481 57.0615 40.1614C57.0615 38.8814 57.0615 37.6014 57.0615 36.3214C57.0615 36.1881 56.9815 36.0281 57.2215 35.9747C57.4348 35.9214 57.5148 36.0547 57.5682 36.2414C57.9415 37.3614 58.3415 38.4547 58.7682 39.5747C58.7682 39.6547 58.7682 39.7347 58.8748 39.8414Z" fill="#637381"/>
<path d="M103.275 38.3746C103.275 39.0679 103.275 39.7346 103.275 40.4279C103.275 40.5613 103.355 40.7213 103.115 40.7213C102.848 40.7213 102.955 40.5613 102.955 40.4279C102.955 39.8679 102.955 39.3079 102.955 38.8013C102.955 38.5346 102.875 38.5079 102.661 38.5079C102.288 38.5613 101.808 38.3479 101.541 38.5879C101.328 38.8013 101.488 39.2813 101.461 39.6546C101.461 39.9479 101.461 40.2146 101.461 40.5079C101.461 40.5879 101.515 40.7213 101.328 40.7746C101.168 40.7746 101.168 40.6946 101.168 40.5613C101.168 39.1213 101.168 37.7079 101.168 36.2679C101.168 36.1346 101.168 36.0546 101.328 36.0546C101.541 36.0546 101.488 36.2146 101.488 36.3213C101.488 36.8813 101.488 37.4413 101.488 37.9479C101.488 38.2146 101.568 38.2946 101.835 38.2413C102.208 38.1879 102.688 38.3746 102.901 38.1613C103.168 37.9479 102.955 37.4679 102.981 37.0946C102.981 36.8013 102.981 36.5346 102.981 36.2413C102.981 36.1613 102.928 36.0279 103.115 35.9746C103.328 35.9746 103.275 36.1079 103.275 36.2413C103.275 36.9346 103.275 37.6546 103.275 38.3746Z" fill="#637381"/>
<path d="M114.207 38.4273C114.207 38.9073 114.207 39.3339 114.207 39.7873C114.26 40.2673 114.5 40.5073 114.9 40.5073C115.274 40.5073 115.54 40.2406 115.594 39.8139C115.594 39.6006 115.594 39.3873 115.594 39.2273C115.594 38.9339 115.674 38.5073 115.114 38.6406C115.034 38.6406 114.954 38.5873 114.954 38.5073C114.954 38.4273 115.007 38.3739 115.114 38.3739C115.274 38.3739 115.487 38.3739 115.674 38.3739C115.807 38.3739 115.834 38.4539 115.834 38.5873C115.834 39.0939 115.887 39.6006 115.78 40.0806C115.647 40.5873 115.354 40.8539 114.794 40.8539C114.287 40.8539 113.994 40.5873 113.86 40.1339C113.727 39.7606 113.807 39.3606 113.807 38.9339C113.807 38.3473 113.807 37.7339 113.807 37.1473C113.807 36.5073 114.154 36.1339 114.66 36.0273C115.46 35.9473 116.02 36.5873 115.86 37.3873C115.86 37.4673 115.807 37.5473 115.727 37.5473C115.594 37.5473 115.567 37.4673 115.567 37.3873C115.567 37.2539 115.567 37.1739 115.567 37.0406C115.514 36.5606 115.274 36.3206 114.847 36.3206C114.474 36.3206 114.207 36.5873 114.154 37.0406C114.18 37.4406 114.207 37.9206 114.207 38.4273Z" fill="#637381"/>
<path d="M46.9552 38.0276C46.9552 37.3876 46.9552 36.8809 46.9552 36.3209C46.9552 36.1876 46.8219 35.9476 47.0885 35.9476C47.3819 35.9476 47.2485 36.2142 47.2485 36.3209C47.2485 37.3876 47.2485 38.4542 47.2485 39.5209C47.2485 39.7876 47.3019 40.0276 47.4619 40.2142C47.6752 40.4276 47.9419 40.4809 48.1819 40.3742C48.4752 40.2942 48.6085 40.0276 48.6619 39.7342C48.7152 39.3076 48.7152 38.9342 48.7152 38.5076C48.7152 37.7342 48.7152 36.9609 48.7152 36.2142C48.7152 36.0809 48.6352 35.9209 48.8752 35.9209C49.0885 35.9209 49.0085 36.1342 49.0085 36.2142C49.0085 37.2809 49.0085 38.2942 49.0085 39.3609C49.0085 39.5209 48.9552 39.7342 48.9285 39.9209C48.7952 40.4009 48.5019 40.6409 48.0219 40.6409C47.5152 40.6409 47.1685 40.4276 47.0352 39.9476C46.8219 39.3609 46.9819 38.6409 46.9552 38.0276Z" fill="#637381"/>
<path d="M28.9551 38.5072C28.9551 37.9206 28.9551 37.4939 28.9551 37.0139C29.0084 36.3739 29.3017 36.0006 29.8084 35.9472C30.6084 35.8939 31.1684 36.5872 30.9551 37.3872C30.9017 37.4672 30.9017 37.5206 30.7951 37.5206C30.7151 37.5206 30.6617 37.4672 30.6617 37.3606C30.6617 37.2006 30.6617 37.0139 30.6084 36.8539C30.5551 36.4806 30.3417 36.2672 29.9684 36.2672C29.5951 36.2672 29.2751 36.4806 29.2484 36.8539C29.1684 37.8672 29.1684 38.9072 29.2484 39.9206C29.3017 40.2939 29.5417 40.5072 29.9417 40.5072C30.3151 40.5072 30.5817 40.2939 30.6351 39.9206C30.6884 39.7072 30.6351 39.4939 30.6884 39.2806C30.6884 39.2006 30.7417 39.0672 30.8484 39.1206C30.9817 39.1206 30.9817 39.2006 30.9817 39.3339C30.9817 39.6272 30.9817 39.8939 30.9017 40.1872C30.7684 40.6672 30.4217 40.8806 29.9684 40.8806C29.4617 40.8806 29.1684 40.6672 29.0351 40.1872C28.8751 39.5206 29.0084 38.9339 28.9551 38.5072Z" fill="#637381"/>
<path d="M44.3948 38.5078C44.3948 37.9212 44.3415 37.4412 44.3948 37.0145C44.4481 36.2412 44.8748 35.8678 45.5948 36.0012C46.1548 36.0812 46.6615 36.9878 46.3948 37.4945C46.3415 37.5745 46.3148 37.5745 46.2348 37.5745C46.1548 37.5745 46.1015 37.5212 46.1015 37.4412C46.1015 37.2812 46.1015 37.0945 46.1015 36.9345C46.0481 36.5078 45.8081 36.2412 45.4081 36.2412C45.0348 36.2412 44.7148 36.4545 44.6881 36.8812C44.6348 37.8678 44.6348 38.8812 44.6881 39.8678C44.7415 40.2412 44.9815 40.5078 45.3815 40.5078C45.7815 40.5078 46.0215 40.2945 46.0748 39.8678C46.1281 39.6545 46.0748 39.4412 46.1281 39.2278C46.1281 39.1478 46.1281 39.0678 46.2615 39.0678C46.3948 39.0678 46.4215 39.1212 46.4215 39.2278C46.4215 39.5745 46.4215 39.8678 46.3415 40.2145C46.1815 40.6412 45.8615 40.8012 45.3548 40.8012C44.8748 40.8012 44.5815 40.5345 44.4481 40.1078C44.3148 39.4945 44.4215 38.9345 44.3948 38.5078Z" fill="#637381"/>
<path d="M59.9944 38.3469C59.9944 38.8269 59.9944 39.2802 59.9944 39.7602C60.0478 40.2402 60.2878 40.4802 60.7144 40.4802C61.0878 40.4802 61.3544 40.2136 61.4078 39.7602C61.4078 39.6002 61.4078 39.4136 61.4078 39.2536C61.4078 39.1736 61.4078 39.0402 61.5411 39.0402C61.6744 39.0402 61.7011 39.1202 61.7011 39.2002C61.7011 39.4936 61.7011 39.7869 61.6211 40.1069C61.4878 40.5336 61.1411 40.8002 60.6344 40.7469C60.1544 40.7469 59.8611 40.5336 59.7011 40.0536C59.6211 39.7602 59.6211 39.4936 59.6211 39.2002C59.6211 38.4802 59.6211 37.7602 59.6211 37.0136C59.6211 36.2936 59.9944 35.8936 60.6078 35.8936C61.3278 35.8936 61.8878 36.6669 61.6744 37.3336C61.6211 37.4136 61.5944 37.4669 61.5411 37.4669C61.4611 37.4669 61.3811 37.4136 61.3811 37.3336C61.3811 37.1736 61.3811 36.9869 61.3811 36.8269C61.3278 36.4002 61.0878 36.1336 60.6878 36.1336C60.2878 36.1336 59.9944 36.3469 59.9944 36.7736C59.9411 37.3602 59.9944 37.8669 59.9944 38.3469Z" fill="#637381"/>
<path d="M98.6889 38.5081C98.6889 37.9214 98.6889 37.4414 98.6889 37.0148C98.7423 36.2948 99.1156 35.8948 99.8089 35.9481C100.449 36.0014 100.956 36.8548 100.716 37.4414C100.662 37.5214 100.636 37.5214 100.556 37.5214C100.476 37.5214 100.422 37.4414 100.422 37.3614C100.422 37.2014 100.422 37.0148 100.369 36.8548C100.316 36.4814 100.102 36.2681 99.7289 36.2681C99.3556 36.2681 99.0356 36.4814 99.0089 36.8548C98.9289 37.8681 98.9289 38.9081 99.0089 39.9214C99.0623 40.2948 99.3023 40.5081 99.7023 40.5081C100.102 40.5081 100.289 40.2948 100.396 39.9214C100.449 39.7081 100.449 39.4948 100.449 39.2814C100.449 39.1481 100.449 39.0681 100.609 39.0681C100.742 39.0681 100.742 39.1481 100.742 39.2814C100.742 39.5748 100.742 39.8414 100.662 40.1348C100.529 40.6148 100.182 40.8281 99.7289 40.8281C99.2222 40.8281 98.9289 40.6148 98.7956 40.1348C98.6089 39.4948 98.6889 38.9348 98.6889 38.5081Z" fill="#637381"/>
<path d="M72.1025 40.1611C72.3958 38.8811 72.6625 37.6011 72.9558 36.3211C72.9558 36.2677 72.9558 36.1877 73.0091 36.1611C73.0091 36.0277 73.0891 35.9477 73.2225 36.0011C73.3825 36.0544 73.3025 36.1611 73.3025 36.2677C73.0358 37.4144 72.8225 38.5344 72.5825 39.6811C72.5291 39.9477 72.4491 40.1877 72.4225 40.4811C72.3691 40.6411 72.3425 40.7744 72.1291 40.7744C71.9158 40.7744 71.8625 40.6411 71.8358 40.5077C71.5425 39.0944 71.2491 37.6811 70.9291 36.3211C70.8758 36.2411 70.7958 36.0544 71.0091 36.0277C71.1691 36.0277 71.1691 36.1611 71.2225 36.2944C71.5158 37.6277 71.7825 38.9344 72.0758 40.2677C72.0491 40.1611 72.0491 40.1611 72.1025 40.1611Z" fill="#637381"/>
<path d="M82.0211 40.7735C81.3278 40.7735 80.8211 40.1335 81.0078 39.4935C81.0611 39.4135 81.0611 39.3601 81.1678 39.3601C81.2744 39.3601 81.3011 39.4401 81.3011 39.5201C81.3011 39.6801 81.3011 39.8668 81.3544 40.0001C81.4344 40.2935 81.6478 40.4801 81.9944 40.5068C82.3411 40.5068 82.5811 40.3735 82.6878 40.0268C82.8478 39.5201 82.7411 39.0935 82.3144 38.8001C82.0478 38.5868 81.7544 38.3735 81.5144 38.1068C81.1411 37.7601 81.0078 37.3068 81.0878 36.7735C81.2211 36.1868 81.5678 35.9201 82.2078 35.9735C82.7144 36.0268 83.0078 36.3468 83.0611 36.9068C83.0611 37.0401 83.1411 37.2001 82.9278 37.2001C82.7144 37.2001 82.7944 37.0401 82.7678 36.9335C82.6878 36.4268 82.4211 36.1601 81.9944 36.2135C81.4878 36.2668 81.2211 36.9068 81.4344 37.4401C81.5144 37.7068 81.7278 37.8668 81.9144 38.0268C82.1811 38.2401 82.4211 38.4001 82.6344 38.6135C83.0611 38.9868 83.1411 39.6268 82.9278 40.1601C82.7678 40.5601 82.4478 40.7735 82.0211 40.7735Z" fill="#637381"/>
<path d="M96.3145 38.3479C96.3145 37.6545 96.3145 37.0145 96.3145 36.3479C96.3145 36.0812 96.3944 36.0012 96.6611 36.0012C97.0878 36.0012 97.5145 36.0012 97.9411 36.0012C98.0211 36.0012 98.2078 35.9479 98.2078 36.1345C98.2078 36.3212 98.0745 36.2679 97.9411 36.2679C97.5945 36.2679 97.3011 36.2679 96.9545 36.2679C96.6878 36.2679 96.6078 36.3212 96.6078 36.5612C96.6611 37.0412 96.6078 37.4945 96.6078 37.9745C96.6078 38.1345 96.6611 38.2412 96.8211 38.2412C97.1145 38.2412 97.3811 38.2412 97.6745 38.2412C97.7545 38.2412 97.8878 38.2412 97.8878 38.3745C97.8878 38.5079 97.8078 38.5079 97.6745 38.5079C97.4078 38.5079 97.1678 38.5079 96.9011 38.5079C96.6878 38.5079 96.5545 38.5612 96.6078 38.8012C96.6078 39.2812 96.6078 39.7345 96.6078 40.2412C96.6078 40.4545 96.6878 40.5345 96.9011 40.5079C97.2478 40.5079 97.5945 40.5079 97.9145 40.5079C97.9945 40.5079 98.1811 40.4545 98.1811 40.6412C98.1811 40.8012 98.0478 40.7745 97.9678 40.7745C97.4878 40.7745 97.0611 40.7745 96.6078 40.7745C96.3411 40.7745 96.3145 40.6945 96.3145 40.4812C96.3145 39.7079 96.3145 39.0145 96.3145 38.3479Z" fill="#637381"/>
<path d="M54.6621 38.3477C54.6621 37.6544 54.6621 37.0144 54.6621 36.3477C54.6621 36.081 54.7154 35.9744 55.0088 36.001C55.4354 36.0544 55.9154 36.001 56.3421 36.001C56.4221 36.001 56.6088 36.001 56.5554 36.161C56.5554 36.2944 56.4221 36.2944 56.3421 36.2944C55.9954 36.2944 55.6221 36.2944 55.2754 36.2944C55.1154 36.2944 55.0088 36.3477 55.0088 36.561C55.0088 37.041 55.0088 37.4944 55.0088 38.001C55.0088 38.2144 55.0888 38.2677 55.2754 38.2677C55.5421 38.2677 55.7821 38.2677 56.0488 38.2677C56.1288 38.2677 56.3154 38.2144 56.3154 38.401C56.3154 38.6144 56.1554 38.561 56.0488 38.561C55.7821 38.561 55.5421 38.561 55.3288 38.561C55.1154 38.561 55.0354 38.6144 55.0354 38.8277C55.0354 39.3077 55.0354 39.761 55.0354 40.2677C55.0354 40.5344 55.1154 40.561 55.3288 40.561C55.6754 40.561 56.0221 40.561 56.3421 40.561C56.4754 40.561 56.5554 40.561 56.5554 40.721C56.5554 40.8544 56.4221 40.8544 56.3421 40.8544C55.8621 40.8544 55.4354 40.8544 54.9821 40.8544C54.7688 40.8544 54.6888 40.801 54.6888 40.561C54.6621 39.7344 54.6621 39.0144 54.6621 38.3477Z" fill="#637381"/>
<path d="M74.6074 38.3475C74.6074 37.6541 74.6074 36.9875 74.6074 36.2941C74.6074 36.0275 74.6874 35.9475 74.9541 35.9475C75.3808 35.9475 75.8608 35.9475 76.2874 35.9475C76.3674 35.9475 76.5541 35.8941 76.5008 36.0808C76.5008 36.2141 76.3674 36.2141 76.2874 36.2141C75.9408 36.2141 75.5941 36.2141 75.2741 36.2141C75.0608 36.2141 74.9274 36.2675 74.9808 36.5075C74.9808 36.9875 74.9808 37.4408 74.9808 37.9208C74.9808 38.1341 75.0341 38.1875 75.2474 38.1875C75.5408 38.1875 75.8074 38.1875 76.1008 38.1875C76.1808 38.1875 76.2608 38.1875 76.2608 38.3208C76.2608 38.4541 76.1808 38.4808 76.1008 38.4808C75.8341 38.4808 75.5408 38.4808 75.3008 38.4808C75.0874 38.4808 75.0074 38.5341 75.0074 38.7475C75.0074 39.2541 75.0074 39.7341 75.0074 40.2408C75.0074 40.4541 75.0874 40.5075 75.2741 40.5075C75.6208 40.5075 75.9941 40.5075 76.3408 40.5075C76.4741 40.5075 76.5541 40.5075 76.5541 40.6675C76.5541 40.8008 76.4208 40.8008 76.3408 40.8008C75.8608 40.8008 75.4074 40.8008 74.9274 40.8008C74.7141 40.8008 74.6608 40.7208 74.6608 40.5075C74.6074 39.7341 74.6074 39.0675 74.6074 38.3475Z" fill="#637381"/>
<path d="M69.4613 36.0012C69.6746 36.0012 69.8879 36.0012 70.1013 36.0012C70.1813 36.0012 70.3679 35.9479 70.3679 36.1345C70.3679 36.3212 70.2079 36.2679 70.1013 36.2679C69.7546 36.2679 69.4079 36.2679 69.0879 36.2679C68.8746 36.2679 68.7946 36.3479 68.8213 36.5612C68.8213 37.0412 68.8213 37.4945 68.8213 37.9745C68.8213 38.1879 68.9013 38.2412 69.1146 38.2412C69.3813 38.2412 69.6213 38.2412 69.8879 38.2412C69.9679 38.2412 70.1546 38.1879 70.1013 38.3745C70.1013 38.5079 69.9679 38.5079 69.8879 38.5079C69.6213 38.5079 69.3279 38.5079 69.0879 38.5079C68.8746 38.5079 68.8213 38.5612 68.8213 38.7745C68.8213 39.2812 68.8213 39.7612 68.8213 40.2679C68.8213 40.4812 68.9013 40.5345 69.0879 40.5345C69.4346 40.5345 69.7813 40.5345 70.1013 40.5345C70.2346 40.5345 70.3679 40.4812 70.3679 40.6945C70.3679 40.8545 70.2079 40.8279 70.1013 40.8279C69.6213 40.8279 69.1946 40.8279 68.7413 40.8279C68.5279 40.8279 68.4746 40.7479 68.4746 40.5345C68.4746 39.1745 68.4746 37.7612 68.4746 36.4012C68.4746 36.1345 68.5546 36.0545 68.8213 36.0545C68.9813 36.0012 69.1946 36.0012 69.4613 36.0012Z" fill="#637381"/>
<path d="M35.1955 38.4536C35.4889 37.6536 35.7555 36.907 35.9955 36.2403C36.0489 36.107 36.0489 35.947 36.2622 35.9736C36.4755 36.0536 36.3155 36.187 36.2622 36.3203C36.1289 36.667 36.0489 37.0403 35.8889 37.3336C35.4622 38.3203 35.2489 39.307 35.3289 40.3736C35.3289 40.507 35.4622 40.7203 35.1689 40.7203C34.9022 40.7203 35.0089 40.507 35.0089 40.3736C35.2222 38.9603 34.5822 37.7603 34.1555 36.507C34.1022 36.427 34.0755 36.2936 34.0222 36.2136C33.9689 36.1336 33.9422 36.0536 34.0755 36.0003C34.1555 35.947 34.2889 36.0003 34.2889 36.1336C34.3689 36.4003 34.4489 36.6136 34.5555 36.8536C34.7955 37.3603 34.9822 37.867 35.1955 38.4536Z" fill="#637381"/>
<path d="M117.407 38.454C117.674 37.734 117.914 37.0406 118.127 36.4006C118.18 36.3206 118.207 36.1873 118.26 36.1073C118.314 36.0273 118.34 35.9473 118.474 35.974C118.607 36.0006 118.554 36.134 118.527 36.2406C118.394 36.5873 118.26 36.9606 118.154 37.3073C117.727 38.294 117.46 39.3073 117.594 40.4273C117.594 40.5607 117.674 40.774 117.434 40.774C117.194 40.774 117.274 40.5606 117.274 40.4806C117.487 39.1206 116.9 37.8673 116.474 36.6406C116.42 36.5606 116.394 36.4807 116.394 36.4273C116.394 36.294 116.18 36.134 116.394 36.054C116.607 35.974 116.607 36.1873 116.66 36.3473C116.874 36.9606 117.114 37.654 117.407 38.454Z" fill="#637381"/>
<path d="M63.1934 38.4541C63.4867 37.6541 63.7534 36.9608 63.9934 36.2408C64.0467 36.1075 64.0467 35.9475 64.26 35.9741C64.4734 36.0541 64.3134 36.1875 64.3134 36.3208C64.18 36.6675 64.1 37.0408 63.94 37.3341C63.5134 38.3208 63.3 39.3075 63.38 40.3741C63.38 40.5075 63.5134 40.7208 63.22 40.7208C62.9534 40.7208 63.06 40.5075 63.06 40.3741C63.2734 39.0141 62.6867 37.7608 62.2067 36.5341C62.1534 36.4541 62.1267 36.3208 62.0734 36.2408C62.02 36.1608 61.94 36.0275 62.1267 35.9741C62.2867 35.9208 62.34 36.0275 62.3934 36.1341C62.4734 36.4008 62.5534 36.6408 62.6867 36.9075C62.8467 37.3875 63.0067 37.9208 63.1934 38.4541Z" fill="#637381"/>
<path d="M40.1286 38.4537C40.1286 37.867 40.1286 37.227 40.1286 36.6137C40.1286 36.267 39.9953 36.187 39.702 36.2403C39.542 36.2403 39.1953 36.3737 39.1953 36.107C39.1953 35.8937 39.4886 35.9737 39.6753 35.9737C40.182 35.9737 40.662 35.9737 41.1686 35.9737C41.2486 35.9737 41.4353 35.9737 41.382 36.1337C41.382 36.267 41.2486 36.267 41.1686 36.267C40.9553 36.267 40.662 36.187 40.4753 36.3203C40.3153 36.4803 40.422 36.827 40.422 37.0937C40.422 38.2137 40.422 39.3603 40.422 40.4537C40.422 40.587 40.502 40.747 40.2886 40.8003C40.022 40.8003 40.1286 40.6403 40.1286 40.507C40.1286 39.7337 40.1286 39.0937 40.1286 38.4537Z" fill="#637381"/>
<path d="M94.6618 38.4539C94.6618 37.8672 94.6618 37.2539 94.6618 36.6672C94.6618 36.3205 94.5819 36.1872 94.2352 36.2405C94.0752 36.2405 93.7285 36.4005 93.7285 36.1072C93.7285 35.8938 94.0219 36.0272 94.2085 35.9738C94.6885 35.9738 95.1419 35.9738 95.6485 35.9738C95.7285 35.9738 95.9152 35.9205 95.9152 36.1072C95.9152 36.2938 95.7819 36.2405 95.7019 36.2405C94.9819 36.3205 94.9819 36.3205 94.9819 37.0405C94.9819 38.1605 94.9819 39.3072 94.9819 40.4005C94.9819 40.5339 95.0619 40.6939 94.8485 40.6939C94.5819 40.6939 94.6885 40.4805 94.6885 40.3472C94.6619 39.7339 94.6618 39.0939 94.6618 38.4539Z" fill="#637381"/>
<path d="M109.063 38.3476C109.063 37.6543 109.063 36.9876 109.063 36.2943C109.063 36.161 109.009 36.001 109.223 36.001C109.436 36.001 109.383 36.161 109.383 36.2943C109.383 37.521 109.436 38.7743 109.383 40.001C109.383 40.3743 109.516 40.481 109.863 40.4276C110.129 40.3743 110.369 40.4276 110.583 40.4276C110.716 40.4276 110.849 40.3743 110.876 40.561C110.876 40.7743 110.716 40.6943 110.609 40.6943C110.183 40.6943 109.809 40.6943 109.383 40.6943C109.116 40.6943 109.089 40.6143 109.089 40.401C109.063 39.7343 109.063 39.0143 109.063 38.3476Z" fill="#637381"/>
<path d="M73.8077 38.3743C73.8077 37.681 73.8077 36.961 73.8077 36.2943C73.8077 36.161 73.7277 36.001 73.9677 36.001C74.2344 36.001 74.1277 36.161 74.1277 36.2943C74.1277 37.7076 74.1277 39.0676 74.1277 40.481C74.1277 40.561 74.2077 40.7476 73.9944 40.7476C73.781 40.7476 73.8344 40.5876 73.8344 40.4543C73.8077 39.7343 73.8077 39.0676 73.8077 38.3743Z" fill="#637381"/>
<path d="M78.0751 39.8672C78.1284 40.0005 78.0751 40.1339 77.9951 40.2405C77.9151 40.1072 77.9418 39.9739 77.9418 39.8939C77.9418 39.9205 77.9951 39.9205 78.0751 39.8672Z" fill="#637381"/>
<path d="M18.0749 30.5882C19.4883 31.3882 19.7816 32.4548 19.4083 33.7882C18.9816 35.3348 17.9683 36.1348 16.4216 36.2148C15.8349 36.2682 15.2749 36.2148 14.7149 36.0815C14.3683 36.0015 14.2083 36.0282 14.1549 36.4282C14.0749 36.9882 13.8883 37.4948 13.7816 38.0548C13.7283 38.3215 13.6483 38.4015 13.3549 38.3215C13.0083 38.1882 12.5016 38.2682 12.3416 37.9748C12.1816 37.7082 12.4749 37.2815 12.5016 36.9082C12.5816 36.5615 12.6616 36.2148 12.7683 35.9215C12.8216 35.7082 12.7683 35.6282 12.5549 35.5748C11.7016 35.3082 11.7016 35.3082 11.4883 36.1615C11.3549 36.5882 11.2749 37.0148 11.1949 37.4948C11.1416 37.7082 11.0616 37.7615 10.9016 37.6548H10.8483C10.4749 37.5748 9.94162 37.5748 9.78162 37.3082C9.56828 37.0948 9.86161 36.6148 9.94161 36.2415C10.0216 35.8948 10.0749 35.6015 10.2083 35.3082C10.2883 35.0415 10.2083 34.9615 9.99495 34.9348C9.22162 34.7748 8.44828 34.5615 7.70161 34.3748C7.48828 34.3215 7.43495 34.2415 7.54161 34.0282C7.70161 33.6548 7.88828 33.2548 8.04828 32.8815C8.12828 32.6682 8.26162 32.6682 8.42162 32.7215C8.68828 32.8015 8.92828 32.8548 9.22162 32.8815C9.56828 32.9615 9.78162 32.8015 9.86162 32.4548C10.3683 30.3748 10.9283 28.2682 11.4349 26.1882C11.5149 25.7615 11.3549 25.4148 10.9283 25.2815C10.6349 25.2015 10.3416 25.1215 10.0749 25.0682C9.80828 25.0148 9.78162 24.9082 9.86162 24.6948C9.99495 24.3215 9.94161 23.7615 10.2083 23.5482C10.4749 23.3348 10.9816 23.6815 11.3549 23.7615C11.8349 23.8415 12.2616 23.9748 12.7149 24.1082C12.9816 24.1615 13.0616 24.1615 13.1416 23.8415C13.2749 23.2548 13.4349 22.6415 13.5683 22.0548C13.6216 21.8415 13.7016 21.7882 13.9149 21.8415C14.2883 21.9748 14.8216 21.9215 15.0349 22.1882C15.1949 22.4548 14.9016 22.9082 14.8216 23.2548C14.7416 23.5482 14.6883 23.8948 14.5549 24.1882C14.5016 24.3482 14.5549 24.4015 14.7149 24.4815C15.6216 24.7748 15.6216 24.7748 15.8349 23.8948C15.9149 23.4682 16.0483 23.0948 16.1283 22.6682C16.1816 22.4548 16.2616 22.4015 16.4216 22.5082C16.7949 22.6415 17.3283 22.5882 17.5416 22.8548C17.7549 23.1215 17.4083 23.5748 17.3816 23.9215C17.3016 24.2948 17.0349 24.7748 17.1149 25.1215C17.1949 25.4148 17.8083 25.4682 18.1283 25.6282C18.3416 25.7615 18.5549 25.8415 18.7149 25.9748C19.6216 26.5615 20.0483 27.3882 19.9149 28.4548C19.7816 29.4682 19.2749 30.2415 18.2616 30.5882C18.1283 30.5348 18.0749 30.5882 18.0749 30.5882Z" fill="#FEFEFE"/>
<path fill-rule="evenodd" clip-rule="evenodd" d="M35.301 27.5208C35.2743 26.3208 34.9277 25.2541 33.6477 24.6941C34.4477 24.2674 34.8477 23.5741 35.0077 22.7474C35.141 22.0274 35.141 21.3341 35.061 20.6141C34.8477 18.7741 34.1277 18.0541 32.2877 17.8408C31.5658 17.7623 30.8348 17.7762 30.1054 17.79C29.5952 17.7997 29.0859 17.8094 28.581 17.7874C28.261 17.7874 28.2077 17.8674 28.2077 18.1608V27.6274V32.1874C28.2077 32.202 28.2075 32.2164 28.2073 32.2306C28.2054 32.3981 28.2039 32.5341 28.4743 32.5341C29.141 32.5074 29.801 32.5074 30.461 32.5074C31.121 32.5074 31.781 32.5074 32.4477 32.4808C33.941 32.4274 34.9277 31.5208 35.221 30.0808C35.381 29.2808 35.3543 28.3741 35.301 27.5208ZM30.4993 21.8409V20.2143C30.4993 20.0009 30.5527 19.8676 30.7927 19.9209C30.9863 19.9562 31.18 19.9449 31.3813 19.9331H31.3814H31.3814C31.485 19.9271 31.5906 19.9209 31.6993 19.9209C32.286 19.9209 32.6327 20.2143 32.7127 20.7743C32.846 21.4676 32.846 22.1343 32.7127 22.8276C32.5793 23.4143 32.2327 23.7609 31.5927 23.8143C30.4727 23.8943 30.4727 23.8943 30.4727 22.8009C30.4993 22.481 30.4993 22.1343 30.4993 21.841V21.8409ZM33.0587 28.3205V28.3205C33.0587 28.6938 33.0587 29.0938 33.0054 29.4672C32.9254 30.1072 32.6321 30.4005 31.9921 30.4538C31.7432 30.4894 31.4706 30.4775 31.198 30.4657H31.198C31.0617 30.4598 30.9254 30.4538 30.7921 30.4538C30.6321 30.4538 30.5254 30.4005 30.5254 30.2405V26.1872C30.5254 26.0272 30.5787 25.9205 30.7387 25.9738H31.7521C32.4721 26.0272 32.8721 26.3472 32.9521 27.0938C32.9796 27.2863 32.9929 27.493 33.0066 27.7065C33.0196 27.9072 33.0329 28.1138 33.0587 28.3205Z" fill="#637381"/>
<path fill-rule="evenodd" clip-rule="evenodd" d="M62.6869 29.2V25.2C62.6869 25.0057 62.6874 24.8114 62.688 24.6171C62.6912 23.4514 62.6945 22.2857 62.5802 21.12C62.5535 19.12 61.5135 17.92 59.6469 17.7066C57.5935 17.4933 55.7535 18.2933 55.6735 20.9066C55.5935 23.76 55.6202 26.6133 55.6735 29.4666C55.7269 30.8 56.2869 31.9466 57.6469 32.4533C58.6869 32.8266 59.7002 32.8 60.6869 32.4533C61.4602 32.1866 61.9669 31.68 62.3135 30.96C62.5535 30.4 62.6869 29.7866 62.6869 29.2ZM60.3675 29.0404V25.2004V25.2C60.3675 23.8934 60.3675 22.6136 60.4208 21.2537C60.4208 21.0404 60.3941 20.7737 60.3408 20.5604C60.1541 20.0004 59.8075 19.707 59.2208 19.707C58.5808 19.707 58.2341 19.9737 58.0741 20.5604C57.9941 20.7737 57.9941 20.987 57.9941 21.2004V29.0937C57.9941 29.307 57.9941 29.467 58.0475 29.6804C58.2075 30.2937 58.5541 30.587 59.1941 30.587C59.8075 30.587 60.1808 30.267 60.3141 29.6804C60.3675 29.467 60.3675 29.2537 60.3675 29.0404Z" fill="#637381"/>
<path fill-rule="evenodd" clip-rule="evenodd" d="M90.1289 36.3476V38.3476C90.1289 38.8009 90.1289 39.2809 90.1822 39.7342C90.1822 40.2584 90.1822 40.5184 90.312 40.6405C90.4397 40.7607 90.693 40.7474 91.1956 40.7209C91.7822 40.6942 92.1289 40.4276 92.2089 39.7876C92.3422 38.9342 92.3156 38.0542 92.2622 37.1476C92.2089 36.2676 91.8889 36.0009 90.9822 36.0009H90.5022C90.2089 35.9742 90.1289 36.0542 90.1289 36.3476ZM90.4766 36.5609V38.3476V38.3478C90.4766 38.9877 90.4766 39.5743 90.5299 40.1609C90.5299 40.1924 90.5269 40.2223 90.5241 40.2504C90.5151 40.3416 90.508 40.4135 90.6099 40.4542C91.2499 40.7476 91.9699 40.3209 91.9699 39.6009V37.3876C91.9699 36.4809 91.7299 36.2676 90.8232 36.2676C90.5566 36.2676 90.4766 36.2942 90.4766 36.5609Z" fill="#637381"/>
<path fill-rule="evenodd" clip-rule="evenodd" d="M67.9128 39.3608C67.9128 38.9608 67.8061 38.6141 67.3261 38.4541C67.6194 38.2941 67.8328 38.1341 67.9128 37.7874C68.0195 36.5341 68.0195 35.8141 66.4728 35.9474H66.2061C66.0195 35.9474 65.9395 36.0008 65.9395 36.2141V40.4808C65.9395 40.6141 65.9395 40.7474 66.0995 40.7474C66.2542 40.7032 66.244 40.6041 66.236 40.5259C66.2344 40.5097 66.2328 40.4944 66.2328 40.4808V38.9074C66.2328 38.8843 66.2312 38.8619 66.2296 38.8405C66.2223 38.7386 66.2165 38.6582 66.3928 38.6141C67.2461 38.5074 67.5928 38.8274 67.5928 39.6274V40.0541C67.5928 40.2141 67.5928 40.4008 67.6461 40.5608C67.6461 40.6674 67.7795 40.7741 67.9128 40.7208C68.0429 40.6836 68.0175 40.6335 67.9902 40.5794C67.9784 40.5559 67.9661 40.5317 67.9661 40.5074C67.8865 40.2286 67.896 39.9498 67.906 39.6599C67.9094 39.5616 67.9128 39.462 67.9128 39.3608ZM66.2181 37.0668C66.2121 37.1379 66.2062 37.209 66.2062 37.2802V38.1335V38.1335C66.2062 38.2135 66.2062 38.2935 66.2862 38.3468C66.4462 38.4535 67.2996 38.2935 67.4329 38.0802C67.6996 37.6268 67.6462 37.1202 67.4862 36.6402C67.3833 36.3109 67.1376 36.2993 66.8714 36.2866C66.7926 36.2828 66.7121 36.279 66.6329 36.2668C66.3396 36.2135 66.1529 36.2935 66.2062 36.6402C66.2418 36.7824 66.2299 36.9246 66.2181 37.0668Z" fill="#637381"/>
<path fill-rule="evenodd" clip-rule="evenodd" d="M33.487 39.3596C33.487 38.933 33.3537 38.613 32.927 38.453C33.3803 38.1596 33.487 37.9996 33.487 37.5463C33.487 37.4691 33.4925 37.3863 33.4982 37.3007C33.5103 37.1202 33.5232 36.9271 33.487 36.7463C33.4337 36.293 33.1403 35.9996 32.6337 35.9463H31.727C31.567 35.9463 31.5137 36.053 31.5137 36.213V40.4796C31.5137 40.613 31.5137 40.7463 31.6737 40.7463C31.8284 40.7021 31.8182 40.6029 31.8102 40.5247C31.8086 40.5086 31.807 40.4933 31.807 40.4796V38.9063C31.807 38.8831 31.8054 38.8608 31.8039 38.8394C31.7965 38.7375 31.7907 38.657 31.967 38.613C32.7937 38.5063 33.167 38.8263 33.167 39.6263V40.213V40.213C33.167 40.3196 33.167 40.453 33.2203 40.5863C33.2737 40.7196 33.3537 40.773 33.487 40.7196C33.6171 40.6825 33.5918 40.6323 33.5645 40.5783C33.5526 40.5548 33.5403 40.5305 33.5403 40.5063C33.4601 40.2255 33.4704 39.9296 33.4804 39.6413C33.4837 39.5463 33.487 39.4521 33.487 39.3596ZM31.7943 37.1219C31.8005 37.1721 31.8069 37.2244 31.8069 37.2799V38.1065C31.8069 38.1227 31.8058 38.139 31.8047 38.155C31.8005 38.2179 31.7965 38.2773 31.8602 38.3199C32.0736 38.5332 33.0069 38.2399 33.0869 37.9465C33.2202 37.5199 33.2202 37.0932 33.0869 36.6665C32.9802 36.3465 32.4736 36.2132 31.9669 36.2932C31.7553 36.3285 31.7769 36.4686 31.8004 36.6212C31.8124 36.6994 31.825 36.7809 31.8069 36.8532C31.7721 36.9403 31.7827 37.0274 31.7943 37.1219Z" fill="#637381"/>
<path fill-rule="evenodd" clip-rule="evenodd" d="M54.0208 39.3878C54.0208 38.9611 53.9141 38.6145 53.4341 38.4545C53.7275 38.2945 53.9408 38.1345 53.9675 37.7878C54.1008 36.5611 54.1008 35.7878 52.5541 35.9211H52.2608C52.0741 35.9211 51.9941 35.9745 51.9941 36.1878V40.4545V40.4545C51.9941 40.6411 51.9941 40.7211 52.1541 40.7211C52.3089 40.6769 52.2987 40.5778 52.2907 40.4996C52.289 40.4834 52.2875 40.4682 52.2875 40.4545V38.8811C52.2875 38.6678 52.3675 38.5878 52.5808 38.5878C53.4875 38.5878 53.7008 38.8011 53.7008 39.6545V39.6546C53.7008 39.9745 53.7008 40.2678 53.7541 40.5611C53.7541 40.7211 53.8875 40.7745 54.0208 40.7211C54.1509 40.684 54.1256 40.6339 54.0983 40.5798C54.0864 40.5563 54.0741 40.5321 54.0741 40.5078C53.9943 40.2083 54.0041 39.9386 54.0141 39.6653C54.0174 39.5736 54.0208 39.4816 54.0208 39.3878ZM52.3688 36.6942V37.2809V37.2809C52.3688 37.5743 52.3688 37.8142 52.4221 38.1342C52.4221 38.1523 52.4194 38.1704 52.4167 38.1882C52.4075 38.249 52.3989 38.3063 52.5021 38.3476C53.0888 38.6142 53.7821 38.1876 53.7821 37.5476V37.2542C53.7821 36.4809 53.5688 36.3209 52.7954 36.2676C52.4488 36.2676 52.3154 36.3476 52.3688 36.6942Z" fill="#637381"/>
<path fill-rule="evenodd" clip-rule="evenodd" d="M51.461 39.3872C51.461 38.9605 51.3277 38.6138 50.901 38.4538C51.461 38.0272 51.6743 37.2272 51.4343 36.5605C51.1873 35.9924 50.6887 35.9962 50.2139 35.9999C50.1761 36.0002 50.1384 36.0005 50.101 36.0005H49.7277C49.5143 35.9738 49.461 36.1072 49.461 36.2672V40.4805C49.461 40.4978 49.4596 40.5165 49.4582 40.5357C49.4507 40.6349 49.4423 40.7472 49.621 40.7472C49.7977 40.7472 49.7915 40.6556 49.7841 40.5484C49.7826 40.5262 49.781 40.5034 49.781 40.4805V38.9072C49.781 38.8751 49.7779 38.8462 49.7751 38.8196C49.7662 38.7354 49.7597 38.6746 49.861 38.6138C50.341 38.3738 51.0877 38.7472 51.141 39.3072V39.8672C51.141 39.9738 51.1543 40.0805 51.1677 40.1872C51.181 40.2938 51.1943 40.4005 51.1943 40.5072C51.1943 40.6672 51.301 40.7738 51.461 40.7205C51.6133 40.6824 51.5754 40.6036 51.5412 40.5325C51.5275 40.504 51.5143 40.4767 51.5143 40.4538C51.4341 40.193 51.4444 39.9171 51.4544 39.6488C51.4577 39.5605 51.461 39.473 51.461 39.3872ZM49.7966 37.1224C49.8028 37.1725 49.8092 37.2248 49.8092 37.2803C49.8092 37.5736 49.8092 37.8136 49.7559 38.1336C49.7559 38.2136 49.7559 38.2936 49.8359 38.3469C50.2092 38.5603 51.0359 38.2136 51.1159 37.8403C51.1959 37.4936 51.1959 37.1203 51.1159 36.7736C50.9825 36.3469 50.6092 36.1869 49.9692 36.2669C49.722 36.3199 49.7554 36.4664 49.7907 36.6213C49.8087 36.7003 49.8272 36.7815 49.8092 36.8536C49.7744 36.9407 49.785 37.0278 49.7966 37.1224Z" fill="#637381"/>
<path fill-rule="evenodd" clip-rule="evenodd" d="M113.326 39.7347V38.3747V38.3743C113.326 37.8678 113.326 37.3879 113.3 36.9347C113.3 36.3214 112.9 36.0014 112.393 35.948C111.753 35.8947 111.326 36.1614 111.273 36.8014C111.193 37.8414 111.193 38.828 111.273 39.8414C111.326 40.4814 111.753 40.8014 112.393 40.748C112.953 40.748 113.326 40.3747 113.326 39.7347ZM111.566 36.9882V38.3482V39.6548C111.62 40.1348 111.833 40.4282 112.26 40.4282C112.686 40.4815 113.033 40.2148 113.033 39.7082C113.086 38.8015 113.086 37.8682 113.033 36.9348C112.98 36.4282 112.686 36.2148 112.26 36.2148C111.833 36.2148 111.62 36.4815 111.566 36.9882Z" fill="#637381"/>
<path fill-rule="evenodd" clip-rule="evenodd" d="M108.554 39.7074V38.3475V37.1208V37.0408C108.528 36.4008 108.181 36.0274 107.621 35.9741C106.981 35.9208 106.554 36.2674 106.501 36.9074C106.448 37.8674 106.448 38.8541 106.501 39.8408C106.554 40.5074 106.981 40.8274 107.621 40.7741C108.181 40.7208 108.554 40.3474 108.554 39.7074ZM108.26 39.601V38.3744C108.23 38.0854 108.234 37.7965 108.239 37.5027C108.242 37.2812 108.245 37.0569 108.234 36.8277C108.18 36.3477 107.887 36.1344 107.46 36.1877C107.087 36.241 106.82 36.481 106.82 36.961V39.601C106.82 40.161 107.06 40.4544 107.54 40.4544C107.967 40.4544 108.207 40.161 108.26 39.601Z" fill="#637381"/>
<path fill-rule="evenodd" clip-rule="evenodd" d="M43.9141 39.7347V38.3747C43.9141 37.868 43.9141 37.388 43.8874 36.9347C43.8874 36.3214 43.4874 36.0014 42.9808 35.948C42.3408 35.8947 41.9141 36.1614 41.8608 36.8014C41.7808 37.8414 41.7808 38.828 41.8608 39.8414C41.9141 40.4814 42.3408 40.8014 42.9808 40.748C43.5408 40.748 43.9141 40.3747 43.9141 39.7347ZM42.18 36.9882V38.3482C42.18 38.5013 42.1739 38.6514 42.1679 38.7995C42.1561 39.0898 42.1446 39.3723 42.18 39.6548C42.2333 40.1348 42.4466 40.4282 42.8733 40.4282C43.3 40.4815 43.6466 40.2148 43.6466 39.7082C43.7 38.8015 43.7 37.8682 43.6466 36.9348C43.5933 36.4282 43.3 36.2148 42.8733 36.2148C42.4466 36.2148 42.2333 36.4815 42.18 36.9882Z" fill="#637381"/>
<path fill-rule="evenodd" clip-rule="evenodd" d="M86.9018 40.7206C86.9818 40.7206 87.0352 40.6673 86.9818 40.5073C87.0085 40.5073 86.9818 40.4539 86.9285 40.4273C86.6085 39.0141 86.3152 37.6542 86.0219 36.2944L86.0218 36.2939C86.0177 36.2733 86.0149 36.2508 86.0119 36.2274C85.9958 36.0997 85.9765 35.9473 85.7285 35.9473C85.5299 35.9473 85.4957 36.0751 85.4595 36.2098C85.452 36.2379 85.4444 36.2663 85.4352 36.2939C85.1152 37.7073 84.8218 39.0673 84.5285 40.4273C84.5235 40.4422 84.5149 40.4599 84.5054 40.4791C84.4642 40.5632 84.4083 40.6772 84.5818 40.7206C84.7084 40.7839 84.7349 40.6969 84.7668 40.5918C84.7752 40.5641 84.784 40.5351 84.7952 40.5073C84.9007 40.1117 84.954 39.9117 85.0841 39.8106C85.2172 39.7073 85.4305 39.7073 85.8618 39.7073H86.1285C86.3952 39.6539 86.5018 39.7339 86.5552 40.0006C86.5818 40.1073 86.6018 40.2006 86.6218 40.2939C86.6418 40.3873 86.6618 40.4806 86.6885 40.5873C86.7418 40.7206 86.7685 40.7206 86.9018 40.7206ZM85.9939 37.4198C85.9228 37.1146 85.8517 36.8094 85.7806 36.5071C85.7806 36.5071 85.7272 36.5071 85.7006 36.4805C85.4872 37.4138 85.2739 38.4005 85.0605 39.3871H86.2605H86.2606C86.3672 39.3871 86.4739 39.3871 86.4205 39.2271C86.2783 38.6405 86.1361 38.0302 85.9939 37.4198Z" fill="#637381"/>
<path fill-rule="evenodd" clip-rule="evenodd" d="M36.8477 36.2933V38.3733C36.8477 39.0933 36.8477 39.7867 36.8743 40.4533V40.4533C36.8743 40.5867 36.8743 40.72 37.0343 40.72C37.189 40.6758 37.1789 40.5766 37.1709 40.4984C37.1692 40.4823 37.1677 40.467 37.1677 40.4533C37.1677 40.3091 37.1738 40.1709 37.1798 40.0347C37.1915 39.7681 37.203 39.5091 37.1677 39.2267C37.141 38.8 37.2743 38.72 37.6477 38.72C38.5543 38.7733 38.8477 38.48 38.8477 37.5733C38.8477 36.1067 38.6343 35.8933 37.1943 35.9467C36.9277 36 36.8477 36.0267 36.8477 36.2933ZM37.1532 37.1385C37.1474 37.2153 37.1418 37.2902 37.1418 37.3594V37.3595C37.1418 37.6528 37.1418 37.9461 37.1685 38.2394C37.1685 38.3728 37.1685 38.4528 37.3285 38.5061C38.1285 38.6661 38.5551 38.3194 38.5551 37.5194V37.1728C38.5285 36.4528 38.3418 36.2928 37.6218 36.2394C37.2751 36.1861 37.0885 36.2928 37.1418 36.6661C37.1778 36.8102 37.1652 36.9786 37.1532 37.1385Z" fill="#637381"/>
<path d="M14.6356 34.1069C13.8623 34.0535 13.1423 33.8935 12.369 33.6802C12.209 33.6269 12.1023 33.5469 12.209 33.3869C12.4223 32.4802 12.6356 31.6002 12.9023 30.7469C12.9556 30.6135 12.9556 30.4802 13.169 30.5335C14.0756 30.7469 15.009 30.9602 15.809 31.4669C16.289 31.7602 16.6623 32.1869 16.609 32.8002C16.5556 33.5202 16.1023 34.0002 15.3823 34.1335C15.1156 34.1069 14.9023 34.1069 14.6356 34.1069Z" fill="#637381"/>
<path d="M15.4338 29.3872C14.7138 29.3872 14.1005 29.2272 13.5138 29.0406C13.3005 28.9872 13.3005 28.9072 13.3538 28.6939C13.5672 27.8939 13.7272 27.1206 13.9405 26.2939C13.9938 26.1606 14.0205 26.0806 14.2072 26.1339C15.0072 26.3472 15.8605 26.4806 16.5538 27.0406C16.9272 27.3339 17.1138 27.7606 17.0338 28.2406C16.9538 28.7206 16.6872 29.0406 16.2338 29.2272C15.9138 29.3872 15.6472 29.4139 15.4338 29.3872Z" fill="#637381"/>
</g>
<defs>
<clipPath id="clip0_6919_11185">
<rect width="118.933" height="32" fill="white" transform="translate(0.982422 14)"/>
</clipPath>
</defs>
</svg>
