<svg width="164" height="60" viewBox="0 0 164 60" fill="none" xmlns="http://www.w3.org/2000/svg">
<path d="M24.0926 41.7103L17.3142 44.6657V44.3675C16.0127 44.6928 14.5486 44.8826 13.1929 44.964C6.79405 44.9097 1.75091 41.5476 1.66956 37.589V36.1249C3.75732 39.1616 8.04128 41.2223 13.1929 41.1409C14.9282 41.2223 16.7177 40.9511 18.2089 40.5444L18.8054 39.0803C17.043 39.6226 15.0908 39.975 13.1929 39.975C6.79405 39.975 1.75091 36.6401 1.66956 32.6001V31.4071C3.75732 34.2269 8.04128 36.2605 13.1929 36.1249C15.5247 36.2605 17.7751 35.7724 19.7002 34.9319L19.9984 33.4678C18.1276 34.4439 15.7145 35.0132 13.22 34.9319C6.82116 35.0132 1.77802 31.6783 1.69668 27.557V26.364C3.78443 29.238 8.06839 31.2987 13.22 31.38C16.1483 31.2987 18.9139 30.5124 21.1914 29.3194L21.4897 27.557C19.429 29.0753 16.4194 30.0786 13.22 30.2141C6.82116 30.0786 1.77802 26.7165 1.69668 22.5409C1.75091 18.5552 6.82116 15.2203 13.22 15.166C17.0159 15.2203 20.5678 16.5488 22.6556 18.7179L22.8725 19.0704H24.3637L24.1468 18.7179C22.0591 15.871 17.8564 14.0001 13.22 14.0001C6.11621 13.973 0.476562 17.8503 0.476562 22.5138V22.8121V37.8602C0.720586 42.4153 6.22466 46.1298 13.1658 46.1298C17.748 46.157 21.8964 44.3403 24.0926 41.7103Z" fill="#637381"/>
<path d="M21.3278 52.0947L23.7138 41.9542L16.8541 44.9367L21.0296 27.367H13.0039L15.0917 18.7178H40.7141L38.6263 27.367H30.2753L28.4858 32.139L37.7316 28.2618L21.3278 52.0947ZM25.5033 39.8936L24.3103 45.8586L34.1526 30.9732L26.0998 34.5522L29.6788 26.2011H37.7316L39.2228 19.9379H15.9593L14.468 26.2011H22.5208L18.6436 42.8761L25.5033 39.8936Z" fill="#637381"/>
<path d="M57.713 24.5476C57.7402 25.4966 57.4419 26.2287 56.8454 26.7709C56.2489 27.3132 55.4355 27.5843 54.3781 27.5843C53.3206 27.5843 52.453 27.2319 51.8023 26.554C51.1515 25.8762 50.8262 24.9814 50.8262 23.8969V22.1345C50.8262 21.0499 51.1515 20.1552 51.7752 19.4774C52.4259 18.7995 53.2664 18.447 54.2967 18.447C55.3813 18.447 56.2218 18.7182 56.8454 19.2333C57.469 19.7756 57.7673 20.5077 57.7402 21.4566V21.4838H56.0049C56.0049 20.9144 55.8693 20.4806 55.5982 20.2094C55.327 19.9383 54.8932 19.8027 54.3238 19.8027C53.7816 19.8027 53.3749 20.0196 53.0766 20.4534C52.7784 20.8873 52.6157 21.4295 52.6157 22.1074V23.8969C52.6157 24.5747 52.7784 25.1441 53.0766 25.5779C53.402 26.0118 53.8358 26.2287 54.4052 26.2287C54.9475 26.2287 55.327 26.0931 55.5982 25.822C55.8693 25.5508 56.0049 25.117 56.0049 24.5476H57.713ZM67.5282 23.8155C67.5282 24.9001 67.1757 25.822 66.4979 26.5269C65.82 27.2319 64.9253 27.5843 63.8136 27.5843C62.702 27.5843 61.8343 27.2319 61.1294 26.5269C60.4515 25.822 60.099 24.9001 60.099 23.8155V22.2158C60.099 21.1313 60.4515 20.2365 61.1294 19.5045C61.8072 18.7995 62.702 18.4199 63.7865 18.4199C64.8982 18.4199 65.7929 18.7724 66.4708 19.5045C67.1757 20.2094 67.5011 21.1313 67.5011 22.2158V23.8155H67.5282ZM65.7387 22.1887C65.7387 21.4838 65.576 20.9415 65.2235 20.4806C64.8711 20.0467 64.4101 19.8027 63.7865 19.8027C63.19 19.8027 62.702 20.0196 62.3766 20.4806C62.0512 20.9144 61.8614 21.4838 61.8614 22.1887V23.7884C61.8614 24.4934 62.0241 25.0628 62.3766 25.5237C62.702 25.9575 63.19 26.2015 63.7865 26.2015C64.4101 26.2015 64.8711 25.9846 65.2235 25.5237C65.576 25.0899 65.7387 24.4934 65.7387 23.7884V22.1887ZM72.1375 27.4488H70.348V18.5555H72.1375V27.4488ZM82.4136 27.4488H80.6241L77.0451 21.4566H77.018V27.4488H75.2285V18.5555H77.018L80.597 24.5476H80.6241V18.5555H82.4136V27.4488ZM91.3882 19.9383H88.8395V27.4488H87.05V19.9383H84.5556V18.5555H91.3882V19.9383ZM98.7632 23.5444H95.4553V26.0931H99.3868V27.4488H93.6929V18.5555H99.3868V19.9383H95.4824V22.1616H98.7903V23.5444H98.7632ZM103.725 26.0931H107.711V27.4488H101.935V18.5555H103.725V26.0931ZM115.303 23.5444H111.995V26.0931H115.926V27.4488H110.232V18.5555H115.926V19.9383H112.022V22.1616H115.33V23.5444H115.303ZM125.307 26.2558C125.036 26.6083 124.63 26.9336 124.06 27.2048C123.518 27.4759 122.813 27.6115 121.945 27.6115C120.861 27.6115 119.993 27.2861 119.315 26.6082C118.637 25.9304 118.285 25.0628 118.285 23.9782V22.1074C118.285 21.0228 118.61 20.1552 119.288 19.4774C119.939 18.7995 120.807 18.447 121.837 18.447C122.921 18.447 123.762 18.7182 124.331 19.2333C124.901 19.7485 125.199 20.4263 125.172 21.294V21.3211H123.491C123.491 20.8601 123.355 20.4806 123.084 20.2094C122.813 19.9383 122.406 19.8027 121.891 19.8027C121.349 19.8027 120.915 20.0196 120.563 20.4263C120.237 20.8602 120.075 21.4024 120.075 22.0532V23.924C120.075 24.6018 120.237 25.1441 120.59 25.5779C120.942 26.0118 121.403 26.2015 121.972 26.2015C122.406 26.2015 122.732 26.1473 122.976 26.066C123.22 25.9846 123.409 25.8762 123.545 25.7406V24.0053H121.837V22.7581H125.335V26.2558H125.307ZM129.917 23.8969V27.4488H128.127V18.5555H131.218C132.221 18.5555 133.035 18.7995 133.604 19.2604C134.174 19.7214 134.472 20.3721 134.472 21.1855C134.472 21.6464 134.363 22.026 134.119 22.3785C133.875 22.7039 133.523 22.975 133.062 23.1919C133.577 23.3546 133.957 23.5986 134.201 23.9782C134.418 24.3307 134.553 24.7916 134.553 25.3339V25.9846C134.553 26.2287 134.58 26.4998 134.662 26.7709C134.716 27.0421 134.851 27.2319 135.014 27.3674V27.503H133.17C133.008 27.3674 132.899 27.1505 132.845 26.8523C132.791 26.554 132.764 26.2558 132.764 25.9846V25.361C132.764 24.9272 132.655 24.5747 132.411 24.3307C132.167 24.0867 131.815 23.9511 131.381 23.9511H129.917V23.8969ZM129.917 22.5412H131.191C131.679 22.5412 132.059 22.4327 132.303 22.2158C132.547 21.9989 132.682 21.7007 132.682 21.2669C132.682 20.8602 132.547 20.5348 132.303 20.2908C132.059 20.0467 131.706 19.9383 131.218 19.9383H129.917V22.5412ZM142.037 25.5508H139.163L138.566 27.4759H136.695L139.705 18.5826H141.521L144.504 27.4759H142.633L142.037 25.5508ZM139.596 24.1409H141.603L140.627 20.9957H140.6L139.596 24.1409ZM148.463 24.2222V27.4488H146.673V18.5555H150.089C151.12 18.5555 151.906 18.8266 152.502 19.3418C153.099 19.8569 153.37 20.5619 153.37 21.4024C153.37 22.243 153.072 22.9479 152.502 23.4631C151.906 23.9782 151.12 24.2494 150.089 24.2494H148.463V24.2222ZM148.463 22.8666H150.089C150.577 22.8666 150.957 22.731 151.228 22.4599C151.472 22.1887 151.608 21.8362 151.608 21.4295C151.608 20.9957 151.472 20.6432 151.228 20.3721C150.984 20.101 150.605 19.9654 150.089 19.9654H148.463V22.8666ZM163.158 27.4488H161.369V23.7613H157.735V27.4488H155.946V18.5555H157.735V22.3785H161.369V18.5555H163.158V27.4488Z" fill="#637381"/>
<path d="M54.0829 41.9821H52.9713V36.1255H50.9648V35.1765H56.0893V36.1255H54.0829V41.9821ZM61.5392 41.9821H60.4275V38.8098C60.4275 38.403 60.3462 38.1048 60.1835 37.915C60.0208 37.7252 59.7768 37.6168 59.4243 37.6168C58.9634 37.6168 58.638 37.7523 58.4211 38.0235C58.2042 38.2946 58.0957 38.7555 58.0957 39.4063V41.9549H57.0112V34.7156H58.0957V36.5593C58.0957 36.8576 58.0686 37.1558 58.0415 37.5083H58.1229C58.2584 37.2643 58.4753 37.0745 58.7465 36.9389C59.0176 36.8033 59.3159 36.722 59.6683 36.722C60.9156 36.722 61.5392 37.3456 61.5392 38.62V41.9821ZM65.308 42.0634C64.4946 42.0634 63.871 41.8194 63.4371 41.3584C62.9762 40.8975 62.7593 40.2468 62.7593 39.4334C62.7593 38.5928 62.9762 37.9421 63.3829 37.4541C63.7896 36.966 64.3861 36.722 65.1182 36.722C65.796 36.722 66.3383 36.9389 66.7179 37.3456C67.1246 37.7523 67.3144 38.3217 67.3144 39.0538V39.6503H63.871C63.8981 40.1383 64.0336 40.545 64.2777 40.7891C64.5217 41.0602 64.9013 41.1958 65.3622 41.1958C65.6605 41.1958 65.9587 41.1686 66.2027 41.1144C66.4739 41.0602 66.745 40.9517 67.0433 40.8162V41.7109C66.7721 41.8465 66.501 41.9278 66.2298 41.9821C65.9858 42.0363 65.6605 42.0634 65.308 42.0634ZM65.1182 37.5625C64.7657 37.5625 64.4946 37.671 64.2777 37.8879C64.0608 38.1048 63.9523 38.4302 63.8981 38.864H66.2298C66.2298 38.4302 66.1214 38.1048 65.9316 37.8879C65.7418 37.671 65.4707 37.5625 65.1182 37.5625ZM73.6048 37.6439H72.3575V41.9821H71.2459V37.6439H70.4054V37.1287L71.2459 36.8033V36.478C71.2459 35.8815 71.3814 35.4205 71.6797 35.1223C71.9779 34.824 72.4118 34.6885 72.9812 34.6885C73.3607 34.6885 73.7403 34.7427 74.1199 34.8783L73.8217 35.7188C73.5505 35.6375 73.3065 35.5832 73.0354 35.5832C72.7914 35.5832 72.6016 35.6646 72.4931 35.8001C72.3846 35.9628 72.3304 36.1797 72.3304 36.478V36.8033H73.5777V37.6439H73.6048ZM78.1327 41.9821L77.9701 41.3042H77.9158C77.7532 41.5482 77.5362 41.738 77.2651 41.8736C76.994 42.0092 76.6686 42.0905 76.3161 42.0905C75.6925 42.0905 75.2316 41.9278 74.9062 41.6296C74.5809 41.3313 74.4453 40.8433 74.4453 40.2197V36.8305H75.5569V40.0028C75.5569 40.4095 75.6383 40.6806 75.801 40.8975C75.9637 41.0873 76.2077 41.1958 76.5602 41.1958C77.0211 41.1958 77.3465 41.0602 77.5634 40.7891C77.7803 40.5179 77.8887 40.057 77.8887 39.4063V36.8305H79.0004V41.9821H78.1327ZM82.4709 41.1686C82.7421 41.1686 83.0132 41.1144 83.2843 41.0331V41.8465C83.1759 41.9007 83.0132 41.9549 82.8234 41.9821C82.6336 42.0092 82.4438 42.0363 82.2269 42.0363C81.1966 42.0363 80.6814 41.494 80.6814 40.4095V37.6439H79.9765V37.1558L80.7357 36.7491L81.1153 35.6646H81.7931V36.8033H83.2572V37.6439H81.7931V40.4095C81.7931 40.6806 81.8473 40.8704 81.9829 41.006C82.0642 41.1144 82.254 41.1686 82.4709 41.1686ZM87.9208 41.9821L87.7581 41.3042H87.7039C87.5412 41.5482 87.3243 41.738 87.0532 41.8736C86.782 42.0092 86.4567 42.0905 86.1042 42.0905C85.4806 42.0905 85.0196 41.9278 84.6943 41.6296C84.396 41.3313 84.2333 40.8433 84.2333 40.2197V36.8305H85.345V40.0028C85.345 40.4095 85.4263 40.6806 85.589 40.8975C85.7517 41.0873 85.9957 41.1958 86.3482 41.1958C86.8091 41.1958 87.1345 41.0602 87.3514 40.7891C87.5683 40.5179 87.6768 40.057 87.6768 39.4063V36.8305H88.7884V41.9821H87.9208ZM92.9639 36.722C93.1808 36.722 93.3706 36.7491 93.5062 36.7762L93.3978 37.8065C93.2351 37.7794 93.0724 37.7523 92.9097 37.7523C92.4759 37.7523 92.1234 37.8879 91.8523 38.1861C91.5811 38.4844 91.4456 38.8369 91.4456 39.2978V41.9821H90.361V36.8305H91.2287L91.3642 37.7252H91.4185C91.5811 37.427 91.8252 37.1829 92.0963 36.9931C92.3403 36.8305 92.6386 36.722 92.9639 36.722ZM96.5158 42.0634C95.7024 42.0634 95.0788 41.8194 94.645 41.3584C94.184 40.8975 93.9671 40.2468 93.9671 39.4334C93.9671 38.5928 94.1841 37.9421 94.5908 37.4541C94.9975 36.966 95.594 36.722 96.326 36.722C97.0039 36.722 97.5461 36.9389 97.9257 37.3456C98.3324 37.7523 98.5222 38.3217 98.5222 39.0538V39.6503H95.0788C95.1059 40.1383 95.2415 40.545 95.4855 40.7891C95.7295 41.0602 96.1091 41.1958 96.5701 41.1958C96.8683 41.1958 97.1666 41.1686 97.4106 41.1144C97.6817 41.0602 97.9529 40.9517 98.2511 40.8162V41.7109C97.98 41.8465 97.7088 41.9278 97.4377 41.9821C97.1666 42.0363 96.8683 42.0634 96.5158 42.0634ZM96.326 37.5625C95.9736 37.5625 95.7024 37.671 95.4855 37.8879C95.2686 38.1048 95.1601 38.4302 95.1059 38.864H97.4377C97.4377 38.4302 97.3292 38.1048 97.1394 37.8879C96.9225 37.671 96.6514 37.5625 96.326 37.5625ZM106.792 39.3791C106.792 40.2197 106.575 40.8704 106.141 41.3584C105.707 41.8194 105.111 42.0634 104.352 42.0634C103.864 42.0634 103.457 41.9549 103.077 41.738C102.698 41.5211 102.427 41.1958 102.237 40.7891C102.047 40.3823 101.939 39.9214 101.939 39.3791C101.939 38.5386 102.155 37.8879 102.589 37.427C103.023 36.966 103.62 36.722 104.406 36.722C105.138 36.722 105.734 36.966 106.168 37.4541C106.602 37.9421 106.792 38.5657 106.792 39.3791ZM103.05 39.3791C103.05 40.5721 103.484 41.1686 104.379 41.1686C105.246 41.1686 105.68 40.5721 105.68 39.3791C105.68 38.2133 105.246 37.6168 104.379 37.6168C103.918 37.6168 103.592 37.7794 103.376 38.0777C103.159 38.3759 103.05 38.8098 103.05 39.3791ZM110.642 37.6439H109.395V41.9821H108.283V37.6439H107.443V37.1287L108.283 36.8033V36.478C108.283 35.8815 108.419 35.4205 108.717 35.1223C109.015 34.824 109.449 34.6885 110.018 34.6885C110.398 34.6885 110.778 34.7427 111.157 34.8783L110.859 35.7188C110.588 35.6375 110.344 35.5832 110.073 35.5832C109.829 35.5832 109.639 35.6646 109.53 35.8001C109.422 35.9357 109.368 36.1797 109.368 36.478V36.8033H110.615V37.6439H110.642ZM118.342 41.9821H117.231V38.8098C117.231 38.403 117.149 38.1319 117.014 37.915C116.878 37.7252 116.634 37.6168 116.309 37.6168C115.875 37.6168 115.577 37.7523 115.387 38.0235C115.197 38.2946 115.089 38.7555 115.089 39.4063V41.9821H114.004V36.8305H114.872L115.034 37.5083H115.089C115.224 37.2643 115.441 37.0745 115.712 36.9389C115.983 36.8033 116.282 36.7491 116.607 36.7491C117.393 36.7491 117.936 37.0203 118.18 37.5625H118.261C118.424 37.3185 118.641 37.1016 118.912 36.966C119.183 36.8305 119.508 36.7491 119.861 36.7491C120.484 36.7491 120.918 36.9118 121.216 37.21C121.488 37.5083 121.65 37.9963 121.65 38.62V41.9821H120.566V38.8098C120.566 38.403 120.484 38.1319 120.349 37.915C120.186 37.7252 119.969 37.6168 119.644 37.6168C119.21 37.6168 118.912 37.7523 118.722 38.0235C118.532 38.2946 118.424 38.7013 118.424 39.2436V41.9821H118.342ZM127.669 39.3791C127.669 40.2197 127.453 40.8704 127.019 41.3584C126.585 41.8194 125.988 42.0634 125.229 42.0634C124.741 42.0634 124.334 41.9549 123.955 41.738C123.575 41.5211 123.304 41.1958 123.114 40.7891C122.925 40.3823 122.816 39.9214 122.816 39.3791C122.816 38.5386 123.033 37.8879 123.467 37.427C123.901 36.966 124.497 36.722 125.283 36.722C126.016 36.722 126.612 36.966 127.046 37.4541C127.453 37.9421 127.669 38.5657 127.669 39.3791ZM123.928 39.3791C123.928 40.5721 124.362 41.1686 125.256 41.1686C126.124 41.1686 126.558 40.5721 126.558 39.3791C126.558 38.2133 126.124 37.6168 125.256 37.6168C124.795 37.6168 124.47 37.7794 124.253 38.0777C124.036 38.3759 123.928 38.8098 123.928 39.3791ZM133.472 41.9821H132.36V38.8098C132.36 38.403 132.279 38.1048 132.116 37.915C131.953 37.7252 131.709 37.6168 131.357 37.6168C130.896 37.6168 130.543 37.7523 130.354 38.0235C130.164 38.2946 130.028 38.7555 130.028 39.4063V41.9821H128.944V36.8305H129.811L129.974 37.5083H130.028C130.191 37.2643 130.408 37.0745 130.679 36.9389C130.95 36.8033 131.276 36.7491 131.628 36.7491C132.875 36.7491 133.472 37.3727 133.472 38.6471V41.9821ZM137.241 42.0634C136.427 42.0634 135.804 41.8194 135.37 41.3584C134.909 40.8975 134.692 40.2468 134.692 39.4334C134.692 38.5928 134.909 37.9421 135.315 37.4541C135.722 36.966 136.319 36.722 137.051 36.722C137.729 36.722 138.271 36.9389 138.65 37.3456C139.057 37.7523 139.247 38.3217 139.247 39.0538V39.6503H135.804C135.831 40.1383 135.966 40.545 136.21 40.7891C136.454 41.0602 136.834 41.1958 137.295 41.1958C137.593 41.1958 137.891 41.1686 138.135 41.1144C138.379 41.0602 138.678 40.9517 138.976 40.8162V41.7109C138.705 41.8465 138.434 41.9278 138.162 41.9821C137.891 42.0363 137.593 42.0634 137.241 42.0634ZM137.024 37.5625C136.671 37.5625 136.4 37.671 136.183 37.8879C135.966 38.1048 135.858 38.4302 135.804 38.864H138.135C138.135 38.4302 138.027 38.1048 137.837 37.8879C137.647 37.671 137.376 37.5625 137.024 37.5625ZM139.518 36.8305H140.711L141.769 39.7587C141.931 40.1654 142.04 40.5721 142.094 40.9246H142.121C142.148 40.7619 142.202 40.545 142.284 40.301C142.365 40.057 142.745 38.8911 143.477 36.8305H144.67L142.474 42.6599C142.067 43.7173 141.416 44.2596 140.467 44.2596C140.223 44.2596 139.979 44.2325 139.762 44.1783V43.3106C139.925 43.3377 140.115 43.3649 140.332 43.3649C140.847 43.3649 141.226 43.0666 141.443 42.443L141.633 41.9549L139.518 36.8305Z" fill="#637381"/>
</svg>
