<svg width="88" height="29" viewBox="0 0 88 29" fill="none" xmlns="http://www.w3.org/2000/svg">
<g clip-path="url(#clip0_6919_11098)">
<path d="M32.4784 7.48023V14.8165H25.1899V8.42756C25.1899 7.90249 24.764 7.47656 24.2389 7.47656H21.7715V25.0388C21.7715 25.5638 22.1974 25.9898 22.7225 25.9898H25.1899V17.798H32.4821V25.0351C32.4748 25.5602 32.8934 25.9934 33.4184 26.0008H33.4331H35.9006V8.42756C35.9006 7.90249 35.4746 7.47656 34.9496 7.47656H32.4784V7.48023ZM46.9527 12.07V20.8713C46.96 21.6717 46.5414 22.4171 45.8511 22.8283C43.9198 23.9446 41.9186 22.5456 41.9186 20.7097V13.021C41.9186 12.4959 41.4927 12.07 40.9676 12.07H38.5002V21.0255C38.5075 23.9115 40.8428 26.2468 43.7288 26.2615H45.1315C48.0212 26.2541 50.3638 23.9115 50.3711 21.0218V13.021C50.3711 12.4959 49.9452 12.07 49.4201 12.07H46.9527Z" fill="white"/>
<path d="M84.287 26.0015H86.7544V13.5321C86.7544 13.007 86.3285 12.5811 85.8034 12.5811H83.336V25.0431C83.3323 25.5682 83.7545 25.9978 84.2796 26.0015H84.287Z" fill="white"/>
<path d="M86.8053 10.0866C87.208 9.11425 86.7463 7.99946 85.7739 7.59668C84.8015 7.1939 83.6868 7.65566 83.284 8.62803C82.8812 9.60041 83.343 10.7152 84.3153 11.118C85.2877 11.5207 86.4025 11.059 86.8053 10.0866Z" fill="white"/>
<path d="M59.1917 12.0635C55.6117 12.0635 52.6816 14.6227 52.6816 18.2027V20.1378C52.6816 23.7178 55.6117 26.2623 59.1917 26.2623C62.7717 26.2623 65.7018 23.7178 65.7018 20.1378V18.2027C65.7055 14.6227 62.7754 12.0635 59.1917 12.0635ZM62.2687 20.3691C62.2687 22.0618 60.8844 23.189 59.1881 23.189C57.4917 23.189 56.1111 22.0618 56.1111 20.3691V17.953C56.1111 16.2603 57.4954 15.1331 59.1881 15.1331C60.8808 15.1331 62.2687 16.2603 62.2687 17.953V20.3691Z" fill="white"/>
<path d="M74.5216 12.0628C73.4494 12.0555 72.3919 12.2978 71.4263 12.7641V8.44611C71.4263 7.92105 71.0003 7.49512 70.4753 7.49512H68.0078V20.1371C68.0078 23.7171 70.9379 26.2617 74.5179 26.2617C78.0979 26.2617 81.028 23.7171 81.028 20.1371V18.2021C81.0317 14.6221 78.1089 12.0628 74.5216 12.0628ZM77.6022 20.3684C77.6022 22.0611 76.2179 23.1884 74.5216 23.1884C72.8289 23.1884 71.4446 22.0611 71.4446 20.3684V17.9524C71.4446 16.2597 72.8289 15.1325 74.5216 15.1325C76.2143 15.1325 77.6022 16.2597 77.6022 17.9524V20.3684Z" fill="white"/>
<path d="M11.4397 8.99647C11.4397 5.26593 9.62214 2.0531 8.23787 1.01031C8.23787 1.01031 8.13139 0.951564 8.1424 1.10211C8.02858 8.30985 4.34576 10.2632 2.3226 12.8923C-2.34792 18.9654 1.99214 25.6224 6.42033 26.8524C8.88778 27.5427 5.84753 25.6334 5.45465 21.6054C4.97364 16.744 11.4397 13.0281 11.4397 8.99647Z" fill="white"/>
<path d="M13.5631 11.454C13.5338 11.4356 13.4934 11.4209 13.4677 11.4687C13.3906 12.3756 12.4653 14.3143 11.2903 16.0988C7.3064 22.1426 9.57558 25.058 10.8534 26.6258C11.5951 27.5328 10.8534 26.6258 12.7039 25.6969C14.9915 24.3089 16.4749 21.9076 16.6952 19.2418C17.0587 14.9458 14.4811 12.2397 13.5631 11.454Z" fill="white"/>
</g>
<defs>
<clipPath id="clip0_6919_11098">
<rect width="87" height="28" fill="white" transform="translate(0.769531 0.5)"/>
</clipPath>
</defs>
</svg>
