<svg width="30" height="30" viewBox="0 0 30 30" fill="none" xmlns="http://www.w3.org/2000/svg">
<path d="M24.2882 4.50028C24.8545 4.62478 25.3598 4.94223 25.7178 5.39828C26.0758 5.85434 26.2642 6.42065 26.2507 7.00028V12.0378C26.2499 15.3332 25.2608 18.5526 23.4113 21.28C21.5618 24.0075 18.9369 26.1176 15.8757 27.3378C15.3114 27.5486 14.69 27.5486 14.1257 27.3378C11.0645 26.1176 8.43956 24.0075 6.59006 21.28C4.74056 18.5526 3.7515 15.3332 3.75068 12.0378V6.95028C3.73716 6.37065 3.92552 5.80434 4.28352 5.34828C4.64153 4.89223 5.14692 4.57478 5.71318 4.45028L14.4632 2.51278C14.8162 2.42543 15.1852 2.42543 15.5382 2.51278L24.2882 4.50028Z" fill="#20BF55"/>
<path d="M14.0381 18.4631C13.7119 18.4651 13.3979 18.3395 13.1631 18.1131L10.3131 15.3131C10.1959 15.1969 10.103 15.0587 10.0395 14.9064C9.97603 14.754 9.94336 14.5907 9.94336 14.4256C9.94336 14.2606 9.97603 14.0973 10.0395 13.9449C10.103 13.7926 10.1959 13.6544 10.3131 13.5381C10.5473 13.3053 10.8641 13.1747 11.1944 13.1747C11.5246 13.1747 11.8414 13.3053 12.0756 13.5381L14.0506 15.4756L19.1881 10.4757C19.3055 10.3599 19.4445 10.2685 19.5972 10.2064C19.7499 10.1444 19.9134 10.1131 20.0782 10.1143C20.243 10.1154 20.406 10.1491 20.5578 10.2132C20.7097 10.2774 20.8474 10.3708 20.9631 10.4882C21.0788 10.6055 21.1703 10.7445 21.2323 10.8973C21.2943 11.05 21.3256 11.2134 21.3245 11.3782C21.3233 11.5431 21.2897 11.706 21.2256 11.8579C21.1614 12.0097 21.068 12.1474 20.9506 12.2632L14.9381 18.1756C14.6873 18.3855 14.3642 18.4887 14.0381 18.4631Z" fill="white"/>
</svg>
