<svg width="130" height="60" viewBox="0 0 130 60" fill="none" xmlns="http://www.w3.org/2000/svg">
<g clip-path="url(#clip0_6919_11282)">
<path d="M85.1003 41.3474C83.0924 41.3474 81.6187 40.9605 80.6424 40.1868C79.8134 39.5605 79.3529 38.5842 79.3529 37.5342H83.3503C83.5345 38.3079 83.8661 38.75 85.1555 38.75C86.574 38.75 87.1634 37.9763 87.1634 36.2263V34.6789H87.0897C86.5924 35.95 85.3029 36.7421 83.9213 36.6131C80.6239 36.6131 78.9476 34.7342 78.9476 31.0684C78.8739 29.5026 79.4082 27.9921 80.4397 26.8131C81.3608 25.8553 82.6503 25.321 83.995 25.3395C85.2845 25.2105 86.5371 25.8737 87.145 27.0158H87.2187V25.5974H91.1608V35.8579C91.1608 37.7368 90.7003 39.0816 89.7424 39.9289C88.7108 40.8868 87.2187 41.3474 85.1003 41.3474ZM85.2292 28.121C83.9397 28.121 83.1661 29.2263 83.1661 31.0868C83.1661 33.021 83.8661 34.0526 85.1555 34.0526C86.2608 34.0526 87.145 33.15 87.145 32.0447V30.571C87.145 29.0237 86.445 28.121 85.2292 28.121ZM47.5582 37.4605C46.1397 37.5895 44.7397 37.221 43.5608 36.4289C42.7871 35.7658 42.3266 34.8079 42.2713 33.7763H45.9555C46.0292 34.55 46.545 34.9368 47.5029 34.9368C48.4055 34.9368 48.9766 34.6053 48.9766 33.9789C48.9766 33.4631 48.645 33.2053 47.8161 33.0763L45.9371 32.8184C43.6897 32.5605 42.4555 31.271 42.4555 29.2631C42.4371 28.2316 42.8608 27.2553 43.6161 26.5553C45.845 25.0079 48.7924 24.9342 51.095 26.371C51.8687 27.0158 52.3108 27.9552 52.3108 28.95H48.6818C48.6634 28.2868 48.1108 27.771 47.4661 27.7895H47.3924C46.3608 27.7895 46.1582 28.25 46.1582 28.6921C46.1582 29.1342 46.3424 29.4658 47.2634 29.5947L49.2713 29.8526C50.1555 29.8895 51.0029 30.2395 51.6661 30.8105C52.3108 31.4368 52.6424 32.321 52.5687 33.2053C52.7345 35.8579 50.7266 37.4789 47.5582 37.4605ZM35.9529 37.4053C32.2134 37.4053 30.0766 35.2131 30.0766 31.271C30.0213 29.6868 30.574 28.1395 31.6239 26.9421C32.7661 25.8184 34.3503 25.2289 35.9529 25.321C37.9608 25.321 39.5082 25.8921 40.4661 26.9974C41.4424 28.25 41.9397 29.7974 41.8845 31.3816V32.2842H34.2029C34.3318 33.9605 34.8476 34.7342 36.0818 34.7342C36.8187 34.8631 37.5371 34.3842 37.7029 33.6289H41.774C41.4976 36.0421 39.4897 37.4053 35.9529 37.4053ZM35.9529 27.7895C34.8476 27.7895 34.3318 28.5631 34.2029 30.1105H37.6845V29.9816C37.5555 28.5079 36.9845 27.7895 35.9529 27.7895ZM109.932 37.35C108.679 37.4237 107.463 36.9447 106.579 36.0605C105.732 35.0842 105.29 33.8131 105.345 32.5053C105.271 31.2342 105.713 29.9816 106.579 29.0237C107.482 28.1579 108.679 27.6974 109.932 27.7342C112.769 27.7342 114.519 29.5395 114.519 32.5053C114.519 35.471 112.695 37.35 109.932 37.35ZM109.932 29.6131C108.44 29.6131 108.127 31.2342 108.127 32.5789C108.127 34.5868 108.771 35.5447 109.932 35.5447C111.092 35.5447 111.737 34.5131 111.737 32.5789C111.737 30.6447 111.092 29.6131 109.932 29.6131ZM100.703 37.35C99.4503 37.4237 98.2345 36.9447 97.3503 36.0605C96.5397 35.0842 96.1161 33.85 96.1897 32.5789C96.1897 29.6131 97.9397 27.8079 100.777 27.8079C103.356 27.8079 104.903 29.0974 104.977 31.2895H102.342C102.287 30.5158 101.956 29.6131 100.795 29.6131C99.174 29.6131 98.9897 31.4737 98.9897 32.5789C98.9897 34.5868 99.5792 35.5447 100.795 35.5447C101.679 35.5447 102.398 34.8447 102.416 33.9605C102.416 33.9421 102.416 33.9421 102.416 33.9237V33.7395H104.995C104.995 34.7895 104.553 35.7658 103.761 36.4658C102.84 37.0553 101.79 37.3684 100.703 37.35ZM57.3582 37.2763C56.3634 37.3684 55.3687 37.0737 54.5766 36.4474C53.8029 35.6368 53.3976 34.5316 53.4713 33.4079V22.4474H57.4871V25.6158H59.8818V28.4526H57.5608V32.6526C57.5608 33.8684 57.9476 34.3289 59.0529 34.3289C59.3108 34.3474 59.5687 34.3105 59.8266 34.2553V37.1474C58.9792 37.2026 58.2055 37.2763 57.3582 37.2763ZM123.987 37.0921H121.279V31.7316C121.334 31.2158 121.242 30.7184 121.021 30.2579C120.763 29.871 120.321 29.6684 119.861 29.7421C118.756 29.7421 118.111 30.5158 118.111 31.8052V37.0921H115.403V27.9921H117.982V29.4842C118.516 28.4158 119.621 27.7526 120.819 27.8079C122.366 27.8079 123.269 28.4526 123.656 29.6868H123.711C124.227 28.5079 125.406 27.771 126.677 27.8079C128.74 27.8079 129.716 28.9131 129.716 31.1605V37.0921H127.008V31.75C127.063 31.2342 126.971 30.7368 126.75 30.2763C126.492 29.8895 126.05 29.6868 125.59 29.7605C124.484 29.7605 123.84 30.5342 123.84 31.8237L123.987 37.0921ZM70.4555 37.0921H66.3292V25.6158H70.3266V27.4763H70.4003C71.1187 26.1131 72.5924 25.2842 74.1397 25.4131C75.6134 25.4131 76.6634 25.8 77.3082 26.5737C77.9713 27.5684 78.2661 28.7474 78.1371 29.9263V37.0921H74.0108V30.571C74.0661 30 73.9555 29.4105 73.6792 28.8947C73.3845 28.4895 72.8871 28.2684 72.3897 28.3237C71.174 28.3237 70.5292 29.0974 70.5292 30.6447L70.4555 37.0921ZM10.7161 37.0921H6.58974V25.6158H10.5871V27.4763H10.6424C11.3608 26.1131 12.8345 25.2842 14.3818 25.4131C15.8555 25.4131 16.9055 25.8 17.5503 26.5737C18.2134 27.5684 18.5082 28.7474 18.3976 29.9263V37.0921H14.2713V30.571C14.3266 30 14.2161 29.4105 13.9397 28.8947C13.645 28.4895 13.1476 28.2684 12.6503 28.3237C11.4161 28.3237 10.7713 29.0974 10.7713 30.6447L10.7161 37.0921ZM95.3608 37.0921H92.524V34.3842H95.3608V37.0921ZM64.9661 37.0921H60.8397V25.6158H64.9661V37.0921ZM26.5213 37.0921H22.2661L18.195 25.6158H22.3397L23.8134 30.5895C24.2003 32.0079 24.5318 33.5 24.5318 33.5552H24.6055C24.8082 32.5789 24.9924 31.621 25.2503 30.6447L26.7424 25.671H30.7397L26.5213 37.0921ZM5.04237 37.0921H0.787109V20.8447H5.04237V37.0921Z" fill="#637381"/>
<path d="M60.7109 24.3819L64.9662 23.6082V19.4082L60.7109 20.1819V24.3819Z" fill="#637381"/>
</g>
<defs>
<clipPath id="clip0_6919_11282">
<rect width="128.947" height="28" fill="white" transform="translate(0.787109 16)"/>
</clipPath>
</defs>
</svg>
