<svg width="72" height="29" viewBox="0 0 72 29" fill="none" xmlns="http://www.w3.org/2000/svg">
<g clip-path="url(#clip0_6919_11086)">
<path d="M21.2109 4.5H0.787466C0.661496 4.5 0.540688 4.54682 0.451614 4.63017C0.36254 4.71352 0.3125 4.82656 0.3125 4.94443V24.0548C0.3125 24.1727 0.36254 24.2858 0.451614 24.3692C0.540688 24.4524 0.661496 24.4992 0.787466 24.4992H21.2109C21.337 24.4992 21.4577 24.4524 21.5469 24.3692C21.6359 24.2858 21.686 24.1727 21.686 24.0548V4.94443C21.686 4.82656 21.6359 4.71352 21.5469 4.63017C21.4577 4.54682 21.337 4.5 21.2109 4.5ZM14.5615 17.3884C14.5615 17.5063 14.5114 17.6193 14.4224 17.7027C14.3333 17.786 14.2125 17.8329 14.0865 17.8329H7.91195C7.78598 17.8329 7.66517 17.786 7.5761 17.7027C7.48703 17.6193 7.43698 17.5063 7.43698 17.3884V11.6109C7.43698 11.493 7.48703 11.3799 7.5761 11.2966C7.66517 11.2132 7.78598 11.1664 7.91195 11.1664H14.0865C14.2125 11.1664 14.3333 11.2132 14.4224 11.2966C14.5114 11.3799 14.5615 11.493 14.5615 11.6109V17.3884Z" fill="white"/>
<path d="M63.968 11.168H57.7933C57.5311 11.168 57.3184 11.3669 57.3184 11.6124V17.39C57.3184 17.6354 57.5311 17.8344 57.7933 17.8344H63.968C64.2303 17.8344 64.4429 17.6354 64.4429 17.39V11.6124C64.4429 11.3669 64.2303 11.168 63.968 11.168Z" fill="white"/>
<path d="M56.8428 4.50098H50.6683C50.406 4.50098 50.1934 4.69995 50.1934 4.9454V10.723C50.1934 10.9684 50.406 11.1674 50.6683 11.1674H56.8428C57.1051 11.1674 57.3179 10.9684 57.3179 10.723V4.9454C57.3179 4.69995 57.1051 4.50098 56.8428 4.50098Z" fill="white"/>
<path d="M71.0949 4.50098H64.9203C64.6581 4.50098 64.4453 4.69995 64.4453 4.9454V10.723C64.4453 10.9684 64.6581 11.1674 64.9203 11.1674H71.0949C71.3573 11.1674 71.5699 10.9684 71.5699 10.723V4.9454C71.5699 4.69995 71.3573 4.50098 71.0949 4.50098Z" fill="white"/>
<path d="M56.8428 17.833H50.6683C50.406 17.833 50.1934 18.032 50.1934 18.2774V24.0551C50.1934 24.3004 50.406 24.4995 50.6683 24.4995H56.8428C57.1051 24.4995 57.3179 24.3004 57.3179 24.0551V18.2774C57.3179 18.032 57.1051 17.833 56.8428 17.833Z" fill="white"/>
<path d="M71.0949 17.833H64.9203C64.6581 17.833 64.4453 18.032 64.4453 18.2774V24.0551C64.4453 24.3004 64.6581 24.4995 64.9203 24.4995H71.0949C71.3573 24.4995 71.5699 24.3004 71.5699 24.0551V18.2774C71.5699 18.032 71.3573 17.833 71.0949 17.833Z" fill="white"/>
<path d="M46.1476 4.50098H39.9732C39.7108 4.50098 39.498 4.69995 39.498 4.9454V10.723C39.498 10.9684 39.7108 11.1674 39.9732 11.1674H46.1476C46.41 11.1674 46.6226 10.9684 46.6226 10.723V4.9454C46.6226 4.69995 46.41 4.50098 46.1476 4.50098Z" fill="white"/>
<path d="M46.1476 17.833H39.9732C39.7108 17.833 39.498 18.032 39.498 18.2774V24.0551C39.498 24.3004 39.7108 24.4995 39.9732 24.4995H46.1476C46.41 24.4995 46.6226 24.3004 46.6226 24.0551V18.2774C46.6226 18.032 46.41 17.833 46.1476 17.833Z" fill="white"/>
<path d="M39.4971 11.6059C39.4971 11.488 39.447 11.3749 39.358 11.2916C39.269 11.2083 39.1481 11.1614 39.0222 11.1614H32.3726V4.94443C32.3726 4.82656 32.3225 4.71352 32.2335 4.63017C32.1444 4.54682 32.0236 4.5 31.8976 4.5H25.7232C25.5971 4.5 25.4764 4.54682 25.3872 4.63017C25.2982 4.71352 25.248 4.82656 25.248 4.94443V24.0449C25.248 24.1627 25.2982 24.2757 25.3872 24.3591C25.4764 24.4425 25.5971 24.4893 25.7232 24.4893H31.8976C32.0236 24.4893 32.1444 24.4425 32.2335 24.3591C32.3225 24.2757 32.3726 24.1627 32.3726 24.0449V17.8279H39.0222C39.1481 17.8279 39.269 17.781 39.358 17.6977C39.447 17.6143 39.4971 17.5013 39.4971 17.3834V11.6059Z" fill="white"/>
</g>
<defs>
<clipPath id="clip0_6919_11086">
<rect width="71" height="28" fill="white" transform="translate(0.769531 0.5)"/>
</clipPath>
</defs>
</svg>
